<svg width="208" height="75" viewBox="0 0 208 75" fill="none" xmlns="http://www.w3.org/2000/svg">
<path d="M49.9106 0C58.034 8.99514 65.631 18.4501 73.6586 27.541C78.8985 21.4294 84.1578 15.337 89.3881 9.21582C92.1565 5.99719 94.8385 2.66307 98.1625 0H133.166C133.166 4.51178 133.186 9.03314 133.272 13.5449C123.903 14.0526 114.524 13.5646 105.146 13.8232C102.703 13.7948 101.382 16.2471 99.811 17.751C94.2645 24.5427 88.2292 30.9415 82.9223 37.9248C89.5226 45.665 95.9216 53.6641 103.374 60.5996C113.232 61.5479 123.252 60.686 133.176 61.0117C133.138 65.581 133.195 70.1504 133.157 74.7197H97.8471C93.8237 71.2424 90.5954 66.9988 86.9936 63.1191C82.7307 58.1378 78.1798 53.406 74.0414 48.3193C65.2477 56.6055 58.3983 66.7785 49.2885 74.7197H4.60978C2.98131 73.2924 1.3042 71.789 0.403727 69.7773C-1.20563 65.8114 2.234 60.9253 6.51603 61.0498C18.3082 60.8007 30.1195 61.1553 41.9213 60.9541C44.9867 61.2798 46.6256 58.3004 48.4936 56.4229C53.2353 50.6082 58.5038 45.2342 63.1977 39.4004C64.8453 37.5995 62.5657 35.5208 61.5502 34.0264C56.1858 27.8285 50.9267 21.5443 45.5815 15.3369C44.3075 13.5169 41.9221 13.8514 40.0063 13.7461C28.8366 13.7269 17.6761 13.8419 6.51603 13.7461C2.81837 13.8898 -0.285818 10.2884 0.0590002 6.68652C0.039842 3.65953 2.76033 1.71468 4.87736 0H49.9106ZM140.025 21.1992C143.531 20.7011 147.095 20.7487 150.601 21.2852C150.438 29.581 150.514 37.887 150.562 46.1924C155.85 46.2115 161.147 46.2981 166.435 46.2119C166.598 48.8653 166.617 51.538 166.445 54.1914C157.641 54.2297 148.828 54.1814 140.025 54.2197C140.082 43.213 140.092 32.206 140.025 21.1992ZM9.81095 32.2061C12.4932 30.453 15.8559 31.2388 18.8735 31.0664C27.7632 31.2963 36.7011 30.7115 45.5717 31.3438C48.2061 32.8382 50.3802 35.09 52.0854 37.5615C50.8591 40.3298 48.3877 42.4659 46.0121 44.2764C37.314 44.8415 28.5486 44.2855 19.8217 44.5059C16.3445 44.3718 12.4552 45.0717 9.38029 43.041C5.54857 40.7228 5.78781 34.2179 9.81095 32.2061Z" fill="#FB7804"/>
<path d="M175.652 0.133789H175.65C186.312 12.9033 197.377 25.3475 208 38.1553C197.204 50.35 186.532 62.6591 175.592 74.7197H140.005C139.938 70.1121 139.957 65.5141 139.938 60.916C149.843 60.7819 159.796 61.2605 169.672 60.6953C176.972 53.482 183.38 45.3586 190.268 37.7334C184.089 30.7118 178.035 23.5755 172.029 16.4102C170.985 15.3852 169.998 13.8235 168.341 13.9287C158.877 13.785 149.412 13.9186 139.948 13.8994C139.967 10.93 139.957 7.96049 139.995 4.98145C139.996 4.96781 139.996 4.95406 139.996 4.94043C139.996 3.29666 139.968 1.64362 139.958 0H176.677L175.652 0.133789ZM109.829 21.3525C117.33 21.4004 124.841 21.391 132.341 21.4102C132.226 24.1882 132.245 26.9759 132.399 29.7539C124.965 30.0413 117.522 29.7539 110.088 29.9551C110.289 31.5835 109.974 33.3459 110.721 34.8594C117.925 34.8402 125.128 34.7638 132.341 34.8691C132.303 37.1777 132.313 39.4961 132.38 41.8047C125.014 41.8334 117.647 41.8907 110.271 41.7949C110.252 43.2989 110.223 44.8036 110.203 46.3076C117.58 46.1543 124.965 46.3075 132.351 46.25C132.274 49.1429 132.304 52.0358 132.38 54.9287C123.874 54.9287 115.366 54.8903 106.86 54.9766C105.193 52.8405 102.808 51.1067 101.735 48.6162C101.457 42.3034 101.687 35.9711 101.62 29.6582C101.304 26.6598 104.006 24.7243 105.644 22.5977C106.535 21.123 108.364 21.4099 109.829 21.3525ZM153.788 0.773438C158.309 0.775832 162.828 0.804409 167.345 0.890625C167.519 0.89601 167.693 0.898984 167.867 0.900391C167.694 0.898974 167.52 0.895998 167.346 0.890625C162.829 0.804405 158.309 0.775825 153.788 0.773438Z" fill="#C10101"/>
</svg>
