<svg width="260" height="117" viewBox="0 0 260 117" fill="none" xmlns="http://www.w3.org/2000/svg">
<g clip-path="url(#clip0_197_108)">
<path d="M192.848 14.4934L192.835 28.9933L192.705 28.7438C191.711 26.8131 189.897 25.4201 187.697 24.8889C184.86 24.2086 181.824 24.5844 179.442 25.9093C176.965 27.2893 175.171 29.5667 174.229 32.534C173.384 35.1904 172.848 38.9611 172.588 44.0503C172.454 46.7456 172.432 47.8502 172.432 52.2494C172.432 56.6486 172.451 57.6885 172.617 60.4485C173 66.908 173.93 72.0815 175.21 74.8512C175.938 76.4321 177.086 77.783 178.499 78.7289C180.566 80.1089 183.638 80.7374 186.543 80.3745C189.491 80.0052 191.798 78.5799 193.472 76.0887C193.612 75.8781 193.732 75.7194 193.742 75.7291C193.752 75.7388 193.976 76.7139 194.242 77.9028L194.727 80.0635L198.692 80.0765L202.657 80.0862L202.634 79.9631C202.601 79.772 202.484 78.3272 202.41 77.1934C202.234 74.5662 202.234 74.3232 202.289 40.7979C202.322 23.01 202.345 6.55669 202.345 4.23075V0H192.861L192.851 14.4934H192.848ZM188.587 33.4378C190.56 33.6613 191.899 34.7142 192.273 36.321C192.426 36.9753 192.627 38.7344 192.744 40.38C192.874 42.2298 192.91 43.7491 192.942 48.7152C192.981 54.8313 192.946 57.0827 192.744 60.9442C192.572 64.1059 192.296 67.6272 192.156 68.3464C191.711 70.614 190.346 71.9875 188.22 72.305C186.813 72.5188 185.415 72.2143 184.463 71.4887C183.667 70.8829 183.01 69.83 182.77 68.7707C182.578 67.9188 182.315 65.9103 182.162 64.0897C181.951 61.4981 181.847 59.0005 181.811 55.1844C181.707 45.2587 182.175 38.0541 183.059 35.9711C183.293 35.4204 183.482 35.1191 183.82 34.7466C184.84 33.6257 186.413 33.1949 188.587 33.4378Z" fill="#161F2F"/>
<path d="M0 40.0852V80.083L10.9785 80.0635C20.9332 80.0506 22.0155 80.0409 22.6492 79.9728C26.4257 79.5549 28.9997 78.4276 30.992 76.3349C32.0677 75.1946 33.0232 73.7012 33.4815 72.4281C34.3395 70.06 34.8757 66.1954 35.0577 61.0414C35.269 55.165 34.5995 48.4204 33.475 45.1161C32.734 42.9295 31.0895 41.0214 29.042 39.9589C28.1645 39.5086 27.1537 39.1717 26.221 39.0194C25.9512 38.9741 25.6945 38.9287 25.6587 38.9158C25.623 38.9028 25.8017 38.8413 26.0682 38.7894C28.1775 38.3294 30.0332 37.0207 31.2487 35.1418C32.5162 33.1754 33.3515 29.6574 33.6537 24.9666C33.8065 22.6763 33.8292 18.4132 33.7025 16.45C33.3937 11.5358 32.669 7.75853 31.681 5.85049C31.0602 4.65836 30.3907 3.79018 29.471 2.99003C27.5892 1.35086 25.2135 0.440568 22.1227 0.171692C21.4142 0.106903 19.955 0.100424 10.6535 0.100424H0V40.0949V40.0852ZM17.8165 9.27461C18.4177 9.37179 18.6972 9.44306 19.1522 9.63095C20.4457 10.159 21.4662 11.1794 21.9375 12.4104C22.3925 13.5961 22.8735 16.6703 23.0522 19.5437C23.1692 21.3805 23.1497 24.5779 23.0067 26.6025C22.8572 28.7665 22.5257 30.7005 22.0642 32.1129C21.5475 33.697 20.5042 34.7628 19.0807 35.1742L18.72 35.2746L14.352 35.294L9.9775 35.307V9.2001H13.6662C16.8025 9.2001 17.4265 9.20982 17.8132 9.27137L17.8165 9.27461ZM19.2237 44.2285C21.0795 44.3743 22.2625 45.2198 22.9807 46.9173C23.7412 48.7119 24.2937 54.0538 24.2092 58.7608C24.1312 63.0207 23.894 66.3411 23.5788 67.611C23.465 68.0581 23.1822 68.6898 22.9222 69.0817C22.698 69.4186 22.1227 69.9661 21.7717 70.1734C21.229 70.4974 20.5952 70.7209 19.8022 70.8602C19.448 70.925 18.7427 70.9379 14.6867 70.9509L9.9775 70.9703V44.1832H14.3292C16.7212 44.1832 18.9215 44.2058 19.2237 44.2285Z" fill="#161F2F"/>
<path d="M208.41 40.0852V80.0797H219.064V0.0907059H208.41V40.0852Z" fill="#E85138"/>
<path d="M226.074 40.0852V80.083L235.616 80.0635C245.038 80.0506 245.161 80.0506 246.016 79.9502C247.791 79.7493 249.234 79.4351 250.488 78.9783C251.229 78.7094 252.396 78.149 252.958 77.7862C255.145 76.3835 256.865 74.1709 257.775 71.5826C258.902 68.3658 259.556 62.9786 259.829 54.5235C260.04 48.064 260.063 35.4431 259.874 29.1067C259.536 17.707 258.73 10.687 257.446 7.99502C255.23 3.35285 251.713 0.926489 246.253 0.278595C244.771 0.100424 244.173 0.0907059 235.008 0.0907059H226.074V40.0852ZM244.03 9.64715C244.667 9.80588 244.983 9.91926 245.503 10.1946C246.725 10.8328 247.628 11.9407 248.2 13.4892C248.74 14.9469 248.909 16.3269 249.152 21.1376C249.49 27.8238 249.611 33.9367 249.65 45.6668C249.685 55.5245 249.643 58.5308 249.422 61.7476C249.25 64.1901 248.925 66.3703 248.564 67.4911C247.973 69.3182 246.643 70.533 244.684 71.0384C243.783 71.2651 243.377 71.2878 239.682 71.2878H236.276V9.51433L239.952 9.53376C243.546 9.54672 243.631 9.5532 244.03 9.64715Z" fill="#E85138"/>
<path d="M52.6524 24.309C52.1162 24.3511 50.9429 24.5131 50.4327 24.6232C49.1424 24.8921 47.9204 25.3262 46.8772 25.8769C44.2512 27.2764 42.2427 29.6995 40.9069 33.0912C39.8409 35.7929 39.3794 39.2073 39.1357 46.1657C39.0642 48.2552 39.0642 56.6519 39.1357 58.7381C39.2787 62.7324 39.4802 65.1685 39.8669 67.4847C40.2927 70.0536 41.1604 73.1019 41.8754 74.5435C43.1234 77.0768 45.1969 78.8585 48.0829 79.8692C49.8444 80.4879 51.6482 80.7665 53.9524 80.7762C55.2947 80.7795 56.0519 80.7341 57.1179 80.5754C60.8619 80.0247 63.6212 78.3304 65.4639 75.457C66.7899 73.3902 67.6479 70.8699 67.9957 68.0095C68.1387 66.8109 68.1809 66.1727 68.2102 64.5562L68.2362 63.0434H59.4677L59.4417 63.5746C59.3279 65.7094 59.1329 67.245 58.7852 68.7254C58.5512 69.7102 58.2717 70.2868 57.7647 70.831C57.1504 71.4951 56.3314 71.9292 55.2654 72.156C54.7129 72.2791 53.4194 72.3018 52.8279 72.2013C51.3232 71.9519 50.3027 71.2392 49.7144 70.0341C49.3959 69.383 49.1977 68.5861 48.9669 66.9826C48.5834 64.3586 48.2649 59.914 48.2649 57.222V56.3927H68.3922L68.4247 54.3972C68.4799 51.1707 68.4019 45.1809 68.2687 42.4306C68.0704 38.391 67.6544 35.4657 66.9167 32.9778C66.3024 30.8916 65.2982 29.1099 64.0047 27.7849C62.1652 25.9093 59.8609 24.8338 56.7637 24.4094C56.1332 24.322 55.7822 24.309 54.4497 24.2993C53.5852 24.296 52.7792 24.296 52.6524 24.309ZM54.6967 33.0232C55.8699 33.169 56.8449 33.6387 57.5274 34.3708C58.0929 34.9863 58.5219 35.8512 58.7007 36.7356C59.0094 38.2808 59.2304 41.7374 59.3084 46.3568L59.3409 48.1936H48.2714V45.8288C48.2714 39.9492 48.5542 37.241 49.3504 35.618C49.9094 34.4712 50.5919 33.7974 51.6417 33.3601C51.9472 33.2337 52.6849 33.0556 53.0814 33.0135C53.4357 32.9778 54.3457 32.9875 54.6999 33.0264L54.6967 33.0232Z" fill="#161F2F"/>
<path d="M118.563 24.309C117.429 24.377 115.93 24.6459 114.9 24.9634C112.459 25.7246 110.63 27.0237 109.138 29.0483C107.991 30.5968 106.999 32.8158 106.411 35.1159C105.462 38.8413 104.945 44.7598 104.945 51.9482C104.945 56.8074 105.225 61.4819 105.781 65.9913C106.353 70.6464 106.986 72.9594 108.234 75.0294C109.411 76.9731 111.166 78.5151 113.243 79.4189C114.712 80.0668 116.249 80.4361 118.137 80.6045C119.418 80.7147 121.621 80.6726 122.7 80.5171C124.988 80.1834 126.857 79.5064 128.436 78.4341C130.689 76.9083 132.275 74.6893 133.217 71.7478C134.247 68.5505 134.966 62.3371 135.157 55.0451C135.336 48.1353 134.65 37.931 133.75 34.2056C133.445 32.9422 132.882 31.4553 132.353 30.4931C130.334 26.8617 126.915 24.8079 122.118 24.3479C121.446 24.2798 119.375 24.2572 118.563 24.3058V24.309ZM120.893 33.2078C123.149 33.4573 124.364 34.5554 124.965 36.8976C125.339 38.3424 125.544 41.0344 125.719 46.5318C125.791 48.8642 125.791 56.8138 125.719 58.6927C125.534 63.4515 125.352 65.8455 125.008 67.7244C124.77 69.0493 124.377 69.924 123.685 70.6626C122.781 71.6377 121.475 72.1074 119.843 72.0426C118.374 71.9875 117.331 71.5858 116.512 70.7663C115.761 70.0147 115.401 69.2372 115.105 67.7471C114.738 65.8973 114.504 62.4862 114.377 57.2577C114.318 54.7989 114.344 48.0964 114.422 46.1884C114.741 38.2031 115.141 36.0488 116.59 34.5036C117.133 33.9237 117.76 33.5609 118.605 33.3406C119.229 33.1754 120.129 33.1204 120.893 33.2046V33.2078Z" fill="#161F2F"/>
<path d="M156.945 24.309C156.415 24.3576 155.31 24.5746 154.751 24.7334C151.921 25.5497 149.964 27.3282 149.096 29.8809L148.947 30.315V27.6359L148.944 24.9634H139.775V80.0797H149.259V59.8654C149.259 42.2233 149.269 39.5831 149.327 39.0713C149.623 36.5024 150.575 34.7757 152.135 33.9821C152.912 33.5868 153.604 33.4573 154.719 33.4961C155.58 33.5221 156.012 33.6192 156.617 33.914C157.673 34.4323 158.226 35.3686 158.479 37.0563C158.525 37.3349 158.541 42.2168 158.564 57.9412C158.596 78.1004 158.609 79.6035 158.739 79.9566L158.788 80.0797H168.151L168.119 79.8886C168.005 79.1824 167.969 73.3287 167.933 49.1752C167.914 39.8649 167.894 34.0209 167.862 33.6646C167.673 31.2415 167.111 29.3917 166.113 27.8692C165.376 26.7483 164.423 25.9061 163.214 25.3035C162.295 24.8467 161.658 24.6427 160.455 24.4289C159.86 24.3252 159.669 24.309 158.473 24.3025C157.745 24.2928 157.056 24.2993 156.945 24.3122V24.309Z" fill="#161F2F"/>
<path d="M69.9329 24.9893C69.9329 24.9893 72.6012 36.9559 75.8642 51.5465L81.7954 78.0745L79.6147 87.2357C78.4154 92.2699 77.4339 96.4002 77.4339 96.4132C77.4339 96.4229 79.5919 96.4326 82.2342 96.4326H87.0312L88.5684 89.5163C89.4167 85.7164 92.9787 69.7102 96.4887 53.9469C99.9987 38.1804 102.885 25.2128 102.901 25.1286L102.927 24.9634H93.4467L93.3752 25.3132C93.3362 25.5076 93.1087 26.5896 92.8714 27.7169C90.9214 36.9786 88.9714 46.9853 87.8859 53.3152C87.2879 56.8106 86.7484 60.6267 86.7322 61.5467V61.7864L86.6867 61.605C86.6639 61.5046 86.5957 60.9895 86.5339 60.4647C85.9392 55.5407 83.6837 43.8398 80.3102 28.1704C79.9852 26.6673 79.6992 25.3294 79.6732 25.1966L79.6244 24.9601H74.7787C72.1104 24.9601 69.9297 24.9731 69.9297 24.986L69.9329 24.9893Z" fill="#161F2F"/>
<path d="M90.766 102.4V107.165L95.1925 102.4H97.9128L92.6478 107.952L98.0395 113.631H95.1438L90.766 108.93V113.631H88.5918V102.4H90.766Z" fill="#182B50"/>
<path d="M97.0247 109.475C97.0247 108.898 97.1352 108.347 97.353 107.823C97.574 107.298 97.8762 106.838 98.263 106.443C98.6497 106.047 99.1047 105.733 99.6312 105.497C100.158 105.26 100.726 105.144 101.337 105.144C101.948 105.144 102.53 105.254 103.053 105.471C103.577 105.688 104.025 105.996 104.405 106.384C104.786 106.776 105.081 107.243 105.289 107.787C105.497 108.334 105.601 108.927 105.601 109.569V110.178H99.1795C99.3192 110.725 99.5987 111.169 100.018 111.519C100.437 111.865 100.934 112.04 101.516 112.04C101.968 112.04 102.368 111.956 102.715 111.791C103.063 111.626 103.395 111.344 103.703 110.949L105.166 112.04C104.747 112.617 104.23 113.061 103.612 113.372C102.995 113.683 102.299 113.838 101.529 113.838C100.895 113.838 100.304 113.728 99.7515 113.511C99.199 113.294 98.7212 112.99 98.3182 112.604C97.9152 112.219 97.6 111.759 97.3692 111.224C97.1385 110.69 97.0215 110.106 97.0215 109.475H97.0247ZM101.289 106.938C100.795 106.938 100.362 107.084 99.992 107.372C99.6215 107.661 99.3615 108.062 99.212 108.574H103.476C103.326 108.062 103.053 107.661 102.654 107.372C102.257 107.084 101.799 106.938 101.285 106.938H101.289Z" fill="#182B50"/>
<path d="M180.935 109.475C180.935 108.898 181.045 108.347 181.263 107.823C181.484 107.298 181.786 106.838 182.173 106.443C182.56 106.047 183.015 105.733 183.541 105.497C184.068 105.26 184.637 105.144 185.248 105.144C185.859 105.144 186.44 105.254 186.964 105.471C187.487 105.688 187.935 105.996 188.316 106.384C188.696 106.773 188.992 107.243 189.2 107.787C189.408 108.334 189.512 108.927 189.512 109.569V110.178H183.09C183.229 110.725 183.509 111.169 183.928 111.519C184.347 111.865 184.845 112.04 185.426 112.04C185.878 112.04 186.278 111.956 186.626 111.791C186.973 111.626 187.305 111.344 187.614 110.949L189.076 112.04C188.657 112.617 188.14 113.061 187.523 113.372C186.905 113.683 186.21 113.838 185.439 113.838C184.806 113.838 184.214 113.728 183.662 113.511C183.109 113.294 182.631 112.99 182.228 112.604C181.825 112.219 181.51 111.759 181.279 111.224C181.049 110.69 180.932 110.106 180.932 109.475H180.935ZM185.202 106.938C184.708 106.938 184.276 107.084 183.905 107.372C183.535 107.661 183.275 108.062 183.125 108.574H187.389C187.24 108.062 186.967 107.661 186.567 107.372C186.171 107.084 185.712 106.938 185.199 106.938H185.202Z" fill="#3675A5"/>
<path d="M108.757 113.469L105.215 105.335H107.483L109.784 110.932L112.053 105.335H114.243L110.187 115.186C110.048 115.529 109.898 115.814 109.736 116.044C109.573 116.274 109.394 116.459 109.196 116.598C108.998 116.738 108.774 116.838 108.52 116.903C108.267 116.968 107.981 117 107.659 117H106.421V115.234H107.227C107.516 115.234 107.747 115.176 107.919 115.056C108.091 114.94 108.241 114.719 108.371 114.399L108.757 113.469Z" fill="#182B50"/>
<path d="M165.097 113.469L161.555 105.335H163.823L166.124 110.932L168.393 105.335H170.583L166.527 115.186C166.387 115.529 166.238 115.814 166.075 116.044C165.913 116.274 165.734 116.459 165.536 116.598C165.338 116.738 165.113 116.838 164.86 116.903C164.606 116.968 164.32 117 163.999 117H162.76V115.234H163.566C163.856 115.234 164.086 115.176 164.259 115.056C164.431 114.94 164.58 114.719 164.71 114.399L165.097 113.469Z" fill="#3675A5"/>
<path d="M125.274 108.014C125.274 108.804 125.121 109.539 124.816 110.22C124.51 110.9 124.094 111.493 123.568 112.001C123.041 112.51 122.424 112.909 121.718 113.197C121.01 113.485 120.249 113.631 119.434 113.631H114.975V102.403H119.434C120.249 102.403 121.01 102.549 121.718 102.837C122.427 103.125 123.044 103.524 123.568 104.032C124.094 104.541 124.51 105.137 124.816 105.821C125.121 106.504 125.274 107.239 125.274 108.02V108.014ZM117.142 104.292V111.736H119.203C119.739 111.736 120.243 111.639 120.708 111.448C121.176 111.256 121.582 110.991 121.933 110.654C122.281 110.317 122.554 109.925 122.755 109.475C122.957 109.024 123.054 108.538 123.054 108.017C123.054 107.495 122.953 107.003 122.755 106.549C122.557 106.096 122.284 105.701 121.933 105.37C121.582 105.04 121.176 104.777 120.708 104.586C120.24 104.395 119.739 104.298 119.203 104.298H117.142V104.292Z" fill="#182B50"/>
<path d="M132.756 113.628V112.857C132.379 113.168 131.969 113.411 131.517 113.586C131.066 113.761 130.584 113.851 130.068 113.851C129.447 113.851 128.865 113.738 128.329 113.505C127.793 113.271 127.325 112.96 126.922 112.565C126.519 112.17 126.203 111.707 125.973 111.179C125.742 110.651 125.625 110.084 125.625 109.484C125.625 108.885 125.739 108.321 125.973 107.79C126.207 107.259 126.522 106.799 126.922 106.404C127.325 106.008 127.793 105.694 128.329 105.464C128.865 105.234 129.444 105.118 130.068 105.118C130.581 105.118 131.062 105.205 131.508 105.374C131.953 105.545 132.362 105.785 132.739 106.096V105.325H134.832V113.618H132.756V113.628ZM132.772 109.491C132.772 109.138 132.703 108.811 132.57 108.506C132.437 108.202 132.258 107.933 132.031 107.703C131.806 107.473 131.54 107.295 131.234 107.165C130.929 107.035 130.598 106.974 130.247 106.974C129.896 106.974 129.577 107.039 129.275 107.165C128.969 107.291 128.7 107.473 128.469 107.703C128.238 107.933 128.056 108.198 127.919 108.506C127.786 108.811 127.718 109.141 127.718 109.491C127.718 109.841 127.786 110.171 127.919 110.476C128.053 110.78 128.235 111.049 128.469 111.279C128.7 111.509 128.966 111.691 129.275 111.827C129.58 111.959 129.905 112.027 130.247 112.027C130.588 112.027 130.929 111.959 131.234 111.827C131.54 111.694 131.806 111.512 132.031 111.279C132.255 111.046 132.434 110.783 132.57 110.476C132.707 110.168 132.772 109.841 132.772 109.491Z" fill="#182B50"/>
<path d="M171.074 113.628V102.435H173.167V106.102C173.544 105.791 173.954 105.552 174.399 105.38C174.844 105.208 175.325 105.124 175.839 105.124C176.459 105.124 177.041 105.237 177.577 105.471C178.114 105.701 178.582 106.015 178.985 106.41C179.388 106.805 179.703 107.269 179.934 107.797C180.164 108.325 180.281 108.892 180.281 109.491C180.281 110.09 180.168 110.654 179.934 111.185C179.7 111.716 179.384 112.176 178.985 112.572C178.582 112.967 178.114 113.281 177.577 113.511C177.041 113.741 176.463 113.858 175.839 113.858C175.325 113.858 174.841 113.77 174.389 113.592C173.937 113.414 173.525 113.174 173.151 112.863V113.634H171.074V113.628ZM173.336 110.476C173.469 110.78 173.648 111.049 173.876 111.279C174.1 111.509 174.366 111.691 174.672 111.827C174.977 111.959 175.309 112.027 175.66 112.027C176.011 112.027 176.329 111.959 176.632 111.827C176.937 111.694 177.207 111.512 177.438 111.279C177.668 111.049 177.85 110.783 177.987 110.476C178.12 110.171 178.188 109.841 178.188 109.491C178.188 109.141 178.12 108.811 177.987 108.506C177.854 108.202 177.672 107.933 177.438 107.703C177.207 107.473 176.94 107.295 176.632 107.165C176.323 107.035 176.001 106.974 175.66 106.974C175.319 106.974 174.977 107.039 174.672 107.165C174.366 107.291 174.1 107.473 173.876 107.703C173.651 107.933 173.473 108.198 173.336 108.506C173.203 108.811 173.135 109.141 173.135 109.491C173.135 109.841 173.203 110.171 173.336 110.476Z" fill="#3675A5"/>
<path d="M137.929 113.035C137.549 112.64 137.357 112.141 137.357 111.541V107.146H135.732V105.331H137.357V102.924H139.45V105.331H141.283V107.146H139.45V111.172C139.45 111.386 139.522 111.548 139.658 111.655C139.795 111.762 139.99 111.817 140.237 111.817H141.283V113.631H139.642C138.878 113.631 138.31 113.433 137.926 113.038L137.929 113.035Z" fill="#182B50"/>
<path d="M149.029 113.628V112.857C148.652 113.168 148.242 113.411 147.791 113.586C147.339 113.761 146.858 113.851 146.341 113.851C145.72 113.851 145.139 113.738 144.602 113.505C144.066 113.271 143.598 112.96 143.195 112.565C142.792 112.17 142.477 111.707 142.246 111.179C142.015 110.651 141.898 110.084 141.898 109.484C141.898 108.885 142.012 108.321 142.246 107.79C142.477 107.262 142.795 106.799 143.195 106.404C143.598 106.008 144.066 105.694 144.602 105.464C145.139 105.234 145.717 105.118 146.341 105.118C146.855 105.118 147.336 105.205 147.781 105.374C148.226 105.545 148.636 105.785 149.013 106.096V105.325H151.106V113.618H149.029V113.628ZM149.045 109.491C149.045 109.138 148.977 108.811 148.844 108.506C148.71 108.202 148.532 107.933 148.304 107.703C148.08 107.473 147.813 107.295 147.508 107.165C147.202 107.035 146.871 106.974 146.52 106.974C146.169 106.974 145.85 107.039 145.548 107.165C145.243 107.291 144.973 107.473 144.742 107.703C144.511 107.933 144.329 108.198 144.193 108.506C144.06 108.811 143.991 109.141 143.991 109.491C143.991 109.841 144.06 110.171 144.193 110.476C144.326 110.78 144.508 111.049 144.742 111.279C144.973 111.509 145.239 111.691 145.548 111.827C145.854 111.959 146.179 112.027 146.52 112.027C146.861 112.027 147.202 111.959 147.508 111.827C147.813 111.694 148.08 111.512 148.304 111.279C148.528 111.046 148.707 110.783 148.844 110.476C148.98 110.168 149.045 109.841 149.045 109.491Z" fill="#182B50"/>
<path d="M161.622 111.597L160.406 110.369L160.286 110.246L160.172 110.372C159.841 110.738 159.444 111.03 158.996 111.23C158.538 111.438 158.044 111.545 157.537 111.545C155.59 111.545 154.007 109.967 154.007 108.027C154.007 106.086 155.59 104.509 157.537 104.509C158.044 104.509 158.534 104.615 158.996 104.823C159.441 105.024 159.838 105.315 160.172 105.681L160.286 105.808L160.406 105.685L161.622 104.457L161.732 104.347L161.625 104.233C161.105 103.676 160.491 103.239 159.802 102.934C159.09 102.62 158.326 102.458 157.537 102.458C154.459 102.458 151.953 104.956 151.953 108.023C151.953 111.091 154.459 113.589 157.537 113.589C158.323 113.589 159.087 113.427 159.802 113.106C160.488 112.798 161.102 112.364 161.625 111.814L161.732 111.7L161.622 111.59V111.597Z" fill="#3675A5"/>
<path d="M192.472 109.465C192.472 109.122 192.543 108.801 192.673 108.503C192.807 108.198 192.985 107.929 193.213 107.699C193.437 107.469 193.704 107.291 194.009 107.162C194.315 107.035 194.646 106.971 194.997 106.971C195.13 106.971 195.264 106.98 195.39 107V105.131C195.319 105.131 195.244 105.127 195.173 105.127C194.659 105.127 194.178 105.215 193.733 105.383C193.288 105.555 192.878 105.795 192.501 106.106V105.335H190.408V113.628H192.469V109.465H192.472Z" fill="#3675A5"/>
<path d="M79.4487 112.747C78.932 112.747 78.4997 112.653 78.152 112.461C77.8042 112.27 77.541 112.018 77.3622 111.7C77.1835 111.386 77.0957 111.039 77.0957 110.66C77.0957 110.307 77.1575 109.999 77.2842 109.734C77.4077 109.468 77.593 109.241 77.84 109.054C78.087 108.866 78.386 108.717 78.7435 108.6C79.0522 108.509 79.4032 108.432 79.7965 108.36C80.1897 108.292 80.5992 108.227 81.0347 108.166C81.4702 108.104 81.896 108.046 82.3217 107.985L81.831 108.253C81.8407 107.709 81.7237 107.304 81.4865 107.039C81.246 106.776 80.8365 106.643 80.2547 106.643C79.8875 106.643 79.5527 106.728 79.2472 106.899C78.9417 107.068 78.7272 107.35 78.607 107.738L77.346 107.353C77.5182 106.757 77.8465 106.281 78.3307 105.931C78.815 105.581 79.4585 105.403 80.2645 105.403C80.8885 105.403 81.4312 105.51 81.896 105.72C82.3575 105.934 82.6987 106.268 82.9132 106.728C83.0237 106.954 83.0952 107.194 83.1212 107.45C83.1472 107.703 83.1602 107.975 83.1602 108.266V112.546H81.9642V110.955L82.1982 111.162C81.909 111.694 81.5417 112.089 81.0965 112.351C80.6512 112.611 80.102 112.74 79.452 112.74L79.4487 112.747ZM79.686 111.648C80.0695 111.648 80.3977 111.58 80.674 111.444C80.9502 111.308 81.1712 111.137 81.3402 110.926C81.5092 110.715 81.6165 110.498 81.6685 110.268C81.7432 110.061 81.7822 109.831 81.7952 109.572C81.805 109.316 81.8115 109.109 81.8115 108.953L82.2502 109.115C81.8245 109.18 81.4377 109.238 81.0867 109.29C80.7357 109.342 80.4237 109.39 80.141 109.442C79.8582 109.491 79.608 109.549 79.387 109.62C79.2017 109.685 79.036 109.763 78.893 109.854C78.75 109.944 78.6362 110.055 78.5517 110.181C78.4672 110.31 78.425 110.466 78.425 110.651C78.425 110.835 78.4705 110.997 78.5615 111.149C78.6525 111.302 78.789 111.422 78.9742 111.512C79.1595 111.603 79.3967 111.648 79.686 111.648Z" fill="#182B50"/>
<path d="M202.667 112.747C201.952 112.747 201.344 112.588 200.847 112.27C200.347 111.953 199.966 111.516 199.7 110.965C199.437 110.411 199.3 109.782 199.297 109.079C199.3 108.364 199.44 107.729 199.71 107.178C199.979 106.627 200.369 106.193 200.873 105.882C201.377 105.571 201.981 105.412 202.687 105.412C203.447 105.412 204.1 105.6 204.64 105.979C205.179 106.358 205.537 106.873 205.709 107.531L204.367 107.917C204.234 107.525 204.016 107.223 203.71 107.006C203.408 106.789 203.06 106.682 202.667 106.682C202.225 106.682 201.861 106.786 201.575 106.993C201.292 107.201 201.081 107.486 200.941 107.845C200.805 108.205 200.733 108.616 200.727 109.083C200.73 109.799 200.896 110.379 201.221 110.822C201.546 111.263 202.027 111.486 202.664 111.486C203.099 111.486 203.45 111.386 203.72 111.188C203.99 110.988 204.195 110.702 204.338 110.33L205.706 110.651C205.478 111.328 205.101 111.849 204.575 112.212C204.048 112.575 203.411 112.756 202.664 112.756L202.667 112.747Z" fill="#182B50"/>
<path d="M209.863 112.747C209.164 112.747 208.56 112.591 208.05 112.277C207.536 111.963 207.143 111.532 206.863 110.981C206.587 110.43 206.447 109.792 206.447 109.073C206.447 108.354 206.59 107.709 206.873 107.158C207.156 106.608 207.556 106.177 208.069 105.872C208.583 105.565 209.181 105.412 209.863 105.412C210.546 105.412 211.166 105.568 211.677 105.882C212.187 106.196 212.587 106.627 212.866 107.175C213.146 107.725 213.285 108.357 213.285 109.073C213.285 109.789 213.146 110.437 212.863 110.988C212.58 111.538 212.184 111.969 211.67 112.28C211.157 112.591 210.555 112.747 209.863 112.747ZM209.863 111.48C210.529 111.48 211.03 111.256 211.358 110.806C211.686 110.359 211.852 109.779 211.852 109.07C211.852 108.36 211.686 107.764 211.352 107.33C211.017 106.893 210.523 106.676 209.863 106.676C209.411 106.676 209.038 106.776 208.745 106.98C208.453 107.184 208.235 107.466 208.092 107.823C207.949 108.182 207.877 108.597 207.877 109.067C207.877 109.795 208.046 110.379 208.381 110.819C208.716 111.256 209.21 111.477 209.86 111.477L209.863 111.48Z" fill="#182B50"/>
<path d="M214.699 112.555V105.604H215.902V107.612H216.058V112.555H214.702H214.699ZM218.885 112.555L218.892 108.25C218.892 107.745 218.765 107.346 218.508 107.058C218.251 106.77 217.907 106.627 217.478 106.627C217.049 106.627 216.708 106.773 216.448 107.065C216.188 107.356 216.058 107.738 216.058 108.211L215.411 107.8C215.411 107.346 215.521 106.938 215.739 106.582C215.96 106.226 216.256 105.944 216.63 105.74C217.003 105.536 217.429 105.432 217.9 105.432C218.372 105.432 218.817 105.536 219.165 105.743C219.512 105.95 219.779 106.242 219.961 106.614C220.143 106.987 220.234 107.421 220.234 107.913L220.227 112.555H218.879H218.885ZM223.065 112.555L223.071 108.224C223.071 107.722 222.941 107.33 222.684 107.048C222.428 106.767 222.086 106.627 221.664 106.627C221.407 106.627 221.17 106.686 220.955 106.805C220.741 106.925 220.569 107.1 220.439 107.333C220.309 107.567 220.24 107.861 220.24 108.211L219.587 107.884C219.577 107.395 219.681 106.967 219.899 106.598C220.117 106.229 220.413 105.944 220.786 105.74C221.16 105.536 221.579 105.435 222.047 105.435C222.801 105.435 223.383 105.662 223.799 106.112C224.212 106.562 224.42 107.162 224.42 107.907L224.413 112.562H223.065V112.555Z" fill="#182B50"/>
<path d="M226.094 115.646V105.604H227.296V110.605H227.452V115.646H226.097H226.094ZM229.373 112.747C228.707 112.747 228.145 112.585 227.693 112.261C227.241 111.937 226.9 111.499 226.666 110.945C226.432 110.391 226.318 109.766 226.318 109.073C226.318 108.38 226.432 107.755 226.663 107.201C226.893 106.647 227.235 106.209 227.683 105.892C228.132 105.571 228.687 105.412 229.347 105.412C230.007 105.412 230.566 105.571 231.044 105.892C231.518 106.213 231.885 106.647 232.145 107.197C232.405 107.748 232.532 108.373 232.532 109.073C232.532 109.773 232.405 110.395 232.149 110.949C231.892 111.506 231.528 111.943 231.057 112.264C230.585 112.585 230.023 112.747 229.373 112.747ZM229.185 111.532C229.614 111.532 229.971 111.422 230.254 111.205C230.536 110.988 230.748 110.69 230.888 110.32C231.027 109.948 231.099 109.533 231.099 109.073C231.099 108.613 231.027 108.205 230.888 107.836C230.748 107.466 230.533 107.171 230.244 106.954C229.955 106.737 229.587 106.627 229.139 106.627C228.716 106.627 228.369 106.731 228.096 106.935C227.823 107.139 227.621 107.427 227.488 107.797C227.358 108.166 227.29 108.59 227.29 109.07C227.29 109.549 227.355 109.977 227.485 110.343C227.615 110.712 227.82 111 228.099 111.211C228.379 111.422 228.739 111.525 229.185 111.525V111.532Z" fill="#182B50"/>
<path d="M235.921 112.747C235.405 112.747 234.972 112.653 234.625 112.461C234.277 112.27 234.014 112.018 233.835 111.7C233.656 111.386 233.568 111.039 233.568 110.66C233.568 110.307 233.63 109.999 233.757 109.734C233.88 109.468 234.066 109.241 234.313 109.054C234.56 108.866 234.859 108.717 235.216 108.6C235.525 108.509 235.876 108.432 236.269 108.36C236.662 108.292 237.072 108.228 237.507 108.166C237.943 108.104 238.369 108.046 238.794 107.985L238.304 108.253C238.313 107.709 238.196 107.304 237.959 107.039C237.719 106.776 237.309 106.643 236.727 106.643C236.36 106.643 236.025 106.728 235.72 106.899C235.414 107.068 235.2 107.35 235.08 107.738L233.819 107.353C233.991 106.757 234.319 106.281 234.803 105.931C235.288 105.581 235.931 105.403 236.737 105.403C237.361 105.403 237.904 105.51 238.369 105.72C238.83 105.934 239.171 106.268 239.386 106.728C239.496 106.954 239.568 107.194 239.594 107.45C239.62 107.703 239.633 107.975 239.633 108.266V112.546H238.437V110.955L238.671 111.162C238.382 111.694 238.014 112.089 237.569 112.351C237.124 112.611 236.575 112.74 235.925 112.74L235.921 112.747ZM236.162 111.648C236.545 111.648 236.874 111.58 237.15 111.444C237.426 111.308 237.647 111.137 237.816 110.926C237.985 110.715 238.092 110.498 238.144 110.268C238.219 110.061 238.258 109.831 238.271 109.572C238.281 109.316 238.287 109.109 238.287 108.953L238.726 109.115C238.3 109.18 237.914 109.238 237.563 109.29C237.212 109.342 236.9 109.39 236.617 109.442C236.334 109.491 236.084 109.549 235.863 109.62C235.678 109.685 235.512 109.763 235.369 109.854C235.226 109.944 235.112 110.055 235.028 110.181C234.943 110.31 234.901 110.466 234.901 110.651C234.901 110.835 234.946 110.997 235.037 111.15C235.128 111.302 235.265 111.422 235.45 111.512C235.635 111.603 235.873 111.648 236.162 111.648Z" fill="#182B50"/>
<path d="M241.301 112.555V105.604H242.51V107.612H242.672V112.555H241.304H241.301ZM246.205 112.555V109.138C246.205 108.869 246.182 108.59 246.137 108.305C246.091 108.02 246.007 107.755 245.88 107.512C245.753 107.269 245.575 107.071 245.344 106.919C245.113 106.77 244.814 106.692 244.444 106.692C244.203 106.692 243.976 106.731 243.758 106.812C243.543 106.893 243.355 107.019 243.192 107.194C243.03 107.369 242.903 107.602 242.812 107.891C242.718 108.179 242.672 108.529 242.672 108.94L241.834 108.626C241.834 107.994 241.951 107.437 242.188 106.954C242.425 106.472 242.767 106.096 243.209 105.824C243.651 105.555 244.187 105.419 244.817 105.419C245.298 105.419 245.705 105.497 246.033 105.652C246.361 105.808 246.624 106.008 246.829 106.261C247.034 106.514 247.19 106.786 247.297 107.081C247.404 107.376 247.479 107.667 247.518 107.949C247.557 108.231 247.577 108.48 247.577 108.694V112.555H246.208H246.205Z" fill="#182B50"/>
<path d="M249.935 115.646L251.284 111.982L251.304 113.064L248.262 105.604H249.669L251.941 111.367H251.528L253.699 105.604H255.067L251.219 115.646H249.935Z" fill="#182B50"/>
</g>
<defs>
<clipPath id="clip0_197_108">
<rect width="260" height="117" fill="white"/>
</clipPath>
</defs>
</svg>
