<svg width="420" height="124" viewBox="0 0 420 124" fill="none" xmlns="http://www.w3.org/2000/svg">
<path d="M34.7792 11.0138C49.52 8.94321 64.8325 11.9672 78.01 18.8106C90.7033 25.3089 99.7333 37.4925 104.569 50.7113C108.944 62.6609 109.387 76.3243 104.307 88.1336C101.553 94.357 98.0008 100.282 93.4625 105.365C88.5683 110.869 82.0642 115.226 74.6908 116.361C66.5825 117.689 58.3342 115.203 51.3342 111.161C42.66 106.155 35.3975 99.0128 29.22 91.181C21.9575 81.8283 16.1242 71.3175 12.35 60.0698C9.52082 51.4308 7.74748 42.1659 9.18248 33.0881C10.1333 27.046 13.0092 21.1268 17.9267 17.36C22.78 13.6575 28.8467 12.0081 34.7792 11.0138ZM44.9117 33.3279C40.525 37.5568 40.9158 44.1311 40.9742 49.7287C41.2133 58.514 40.2508 67.4279 42.135 76.0904C43.1792 81.0153 45.53 85.8291 49.4908 89.0402C53.6792 92.6374 59.215 94.6728 64.745 94.3921C73.3725 94.0587 81.615 88.4202 84.8758 80.3777C86.6492 75.5991 86.2933 70.2238 84.8 65.4217C83.1083 60.1283 78.2783 56.5487 73.215 54.794C74.9592 52.624 76.5108 50.1908 77.0008 47.4008C78.1325 41.7506 75.6592 35.7085 71.1383 32.2225C63.5842 26.3968 52.0283 27.1513 44.9117 33.3279Z" fill="#88B840"/>
<path d="M57.972 38.3815C62.2128 37.1942 66.6403 41.3177 65.9228 45.6285C65.4795 49.3076 61.612 52.1151 57.9836 51.1559C54.2561 50.3545 51.8353 45.9151 53.3986 42.3706C54.1861 40.4287 55.9186 38.8553 57.972 38.3815Z" fill="#88B840"/>
<path d="M59.6766 62.4972C61.5666 62.6551 63.4508 61.8947 65.3174 62.3568C69.0158 63.1523 72.2358 65.8253 73.6999 69.323C75.9341 74.3415 74.1433 80.7404 69.5933 83.8228C66.8983 85.9051 63.4041 86.104 60.1433 85.7589C60.1491 84.4136 60.1433 83.0683 60.1316 81.7289C61.0299 81.6879 61.9283 81.6528 62.8266 81.6177C62.7858 78.9038 62.8558 76.1898 62.7683 73.4759C61.6833 73.4992 60.5924 73.5226 59.5074 73.5519C59.4433 72.3528 59.4258 71.1596 59.4258 69.9664C60.5516 69.9547 61.6833 69.9489 62.8149 69.943C62.8149 69.13 62.8149 68.317 62.8208 67.5098C61.7591 67.4981 60.7033 67.4923 59.6474 67.4864C59.6649 65.8253 59.6766 64.1583 59.6766 62.4972Z" fill="#88B840"/>
<path d="M57.4477 63.6904C58.3927 63.3745 58.731 63.6962 58.4685 64.6438C57.5235 64.9538 57.1793 64.6379 57.4477 63.6904Z" fill="#88B840"/>
<path d="M53.6322 66.1353C54.5888 65.8662 54.8922 66.2055 54.5538 67.1472C53.5972 67.4162 53.288 67.077 53.6322 66.1353Z" fill="#88B840"/>
<path d="M56.0995 66.4687C56.8928 66.4511 57.6803 66.4394 58.4678 66.4277C58.4795 67.1998 58.4912 67.9777 58.5028 68.7557C57.692 68.7791 56.887 68.8083 56.0762 68.8375C56.0878 68.0479 56.0937 67.2583 56.0995 66.4687Z" fill="#88B840"/>
<path d="M54.0227 68.3579C54.6294 67.5566 55.8194 68.6562 55.1485 69.3581C54.5477 70.1419 53.3519 69.054 54.0227 68.3579Z" fill="#88B840"/>
<path d="M51.4336 69.0715C51.8303 69.0423 52.6236 68.9896 53.0203 68.9604C53.0203 69.3874 53.0203 70.2472 53.0203 70.6741C52.6294 70.6683 51.8478 70.6624 51.4569 70.6566C51.4511 70.2647 51.4394 69.4692 51.4336 69.0715Z" fill="#88B840"/>
<path d="M54.3613 70.446C55.388 70.4285 56.4205 70.4109 57.453 70.3875C57.4588 71.4345 57.4705 72.4815 57.488 73.5285C56.4497 73.5285 55.4113 73.5343 54.373 73.5402C54.3672 72.5049 54.3672 71.4755 54.3613 70.446Z" fill="#88B840"/>
<path d="M50.5938 71.686C51.3987 71.6509 52.2096 71.61 53.0146 71.5691C53.1196 72.3177 53.1662 73.0723 53.1604 73.8326C52.5129 74.3649 51.5212 74.0081 50.7454 74.1719C50.6929 73.3413 50.6404 72.5166 50.5938 71.686Z" fill="#88B840"/>
<path d="M51.7422 74.979C52.7747 74.9966 53.8072 75.0083 54.8397 75.02C54.8689 76.0553 54.8747 77.0964 54.8514 78.1375C53.8189 78.12 52.7864 78.1141 51.7539 78.1141C51.7539 77.0672 51.748 76.026 51.7422 74.979Z" fill="#88B840"/>
<path d="M56.6367 75.0434C58.5151 75.0025 60.3992 74.9908 62.2776 75.0025C62.2776 76.8975 62.2776 78.7985 62.2717 80.6994C60.4167 80.7521 58.5617 80.7755 56.7009 80.7872C56.6542 78.8745 56.6367 76.956 56.6367 75.0434Z" fill="#88B840"/>
<path d="M53.8084 79.6466C54.1759 79.6583 54.9109 79.6759 55.2842 79.6876C55.2842 80.0619 55.2842 80.8047 55.2842 81.1791C54.905 81.1849 54.1409 81.2025 53.7617 81.2142C53.7734 80.8223 53.7967 80.0385 53.8084 79.6466Z" fill="#88B840"/>
<path d="M55.6328 82.0915C56.8519 82.0798 58.3161 82.4249 59.0161 81.1147C59.1969 81.4773 59.5528 82.1968 59.7336 82.5594C59.3078 82.4541 58.4444 82.2319 58.0186 82.1207C58.0361 82.9221 58.0478 83.7175 58.0653 84.5189C57.2486 84.5189 56.4378 84.513 55.6211 84.5189C55.6269 83.7058 55.6269 82.8987 55.6328 82.0915Z" fill="#88B840"/>
<path d="M44.9099 33.3279C52.0266 27.1513 63.5824 26.3968 71.1366 32.2225C75.6574 35.7085 78.1308 41.7506 76.9991 47.4008C76.5091 50.1908 74.9574 52.624 73.2133 54.794C78.2766 56.5487 83.1066 60.1283 84.7982 65.4217C86.2916 70.2238 86.6474 75.5991 84.8741 80.3777C81.6133 88.4202 73.3707 94.0587 64.7433 94.3921C59.2133 94.6728 53.6774 92.6374 49.4891 89.0402C45.5283 85.829 43.1774 81.0153 42.1333 76.0904C40.2491 67.4279 41.2116 58.514 40.9724 49.7287C40.9141 44.1311 40.5233 37.5568 44.9099 33.3279ZM57.9707 38.3815C55.9174 38.8553 54.1849 40.4287 53.3974 42.3706C51.8341 45.9151 54.2549 50.3545 57.9824 51.1558C61.6108 52.1151 65.4783 49.3075 65.9216 45.6285C66.6391 41.3177 62.2116 37.1942 57.9707 38.3815ZM59.6741 62.4972C59.6741 64.1583 59.6624 65.8253 59.6449 67.4864C60.7008 67.4923 61.7566 67.4981 62.8183 67.5098C62.8124 68.317 62.8124 69.13 62.8124 69.943C61.6808 69.9489 60.5491 69.9547 59.4233 69.9664C59.4233 71.1596 59.4408 72.3528 59.5049 73.5519C60.5899 73.5226 61.6808 73.4992 62.7658 73.4758C62.8533 76.1898 62.7832 78.9038 62.8241 81.6177C61.9257 81.6528 61.0274 81.6879 60.1291 81.7289C60.1408 83.0683 60.1466 84.4136 60.1408 85.7589C63.4016 86.104 66.8958 85.9051 69.5908 83.8228C74.1408 80.7404 75.9316 74.3415 73.6974 69.323C72.2332 65.8253 69.0133 63.1523 65.3149 62.3568C63.4483 61.8947 61.5641 62.6551 59.6741 62.4972ZM57.4458 63.6904C57.1774 64.6379 57.5216 64.9538 58.4666 64.6438C58.7291 63.6962 58.3908 63.3745 57.4458 63.6904ZM53.6308 66.1353C53.2866 67.077 53.5957 67.4162 54.5524 67.1472C54.8907 66.2055 54.5874 65.8662 53.6308 66.1353ZM56.0983 66.4687C56.0924 67.2583 56.0866 68.0479 56.0749 68.8375C56.8857 68.8083 57.6908 68.7791 58.5016 68.7557C58.4899 67.9777 58.4783 67.1998 58.4666 66.4277C57.6791 66.4394 56.8916 66.4511 56.0983 66.4687ZM54.0216 68.3579C53.3508 69.054 54.5466 70.1419 55.1474 69.3581C55.8183 68.6562 54.6283 67.5566 54.0216 68.3579ZM51.4316 69.0715C51.4374 69.4692 51.4491 70.2647 51.4549 70.6566C51.8458 70.6625 52.6274 70.6683 53.0183 70.6741C53.0183 70.2472 53.0183 69.3874 53.0183 68.9604C52.6216 68.9896 51.8283 69.0423 51.4316 69.0715ZM54.3599 70.446C54.3658 71.4755 54.3658 72.5049 54.3716 73.5402C55.4099 73.5343 56.4483 73.5285 57.4866 73.5285C57.4691 72.4815 57.4574 71.4345 57.4516 70.3875C56.4191 70.4109 55.3866 70.4285 54.3599 70.446ZM50.5916 71.686C50.6383 72.5166 50.6908 73.3413 50.7433 74.1719C51.5191 74.0081 52.5108 74.3649 53.1583 73.8326C53.1641 73.0723 53.1174 72.3177 53.0124 71.5691C52.2074 71.61 51.3966 71.6509 50.5916 71.686ZM51.7407 74.9791C51.7466 76.026 51.7524 77.0672 51.7524 78.1141C52.7849 78.1141 53.8174 78.12 54.8499 78.1375C54.8733 77.0964 54.8674 76.0553 54.8383 75.02C53.8058 75.0083 52.7732 74.9966 51.7407 74.9791ZM56.6349 75.0434C56.6349 76.956 56.6524 78.8745 56.6991 80.7872C58.5599 80.7755 60.4149 80.7521 62.2699 80.6994C62.2758 78.7985 62.2758 76.8975 62.2758 75.0024C60.3974 74.9907 58.5132 75.0025 56.6349 75.0434ZM53.8058 79.6466C53.7941 80.0385 53.7708 80.8223 53.7591 81.2142C54.1383 81.2025 54.9024 81.1849 55.2816 81.179C55.2816 80.8047 55.2816 80.0619 55.2816 79.6875C54.9082 79.6758 54.1733 79.6583 53.8058 79.6466ZM55.6316 82.0915C55.6258 82.8987 55.6258 83.7058 55.6199 84.5189C56.4366 84.513 57.2474 84.5189 58.0641 84.5189C58.0466 83.7175 58.0349 82.9221 58.0174 82.1207C58.4433 82.2319 59.3066 82.4541 59.7324 82.5594C59.5516 82.1968 59.1958 81.4773 59.0149 81.1147C58.3149 82.4249 56.8508 82.0798 55.6316 82.0915Z" fill="white"/>
<path d="M300.264 40.7621C303.344 38.7851 306.605 37.1064 309.784 35.2932C309.598 50.3662 309.732 65.4451 309.714 80.524C306.71 80.524 303.712 80.5591 300.708 80.5006C300.719 79.4126 300.743 78.3306 300.766 77.2485C296.922 82.3489 288.563 82.8987 283.954 78.5294C280.063 74.9908 278.628 69.4868 278.879 64.363C278.838 59.1106 281.078 53.5598 285.646 50.6996C290.237 47.8336 296.648 48.7577 300.352 52.6766C300.258 48.7051 300.387 44.7336 300.264 40.7621ZM293.06 57.0692C290.435 57.8589 288.913 60.5962 288.627 63.1932C288.312 65.9774 288.656 69.0949 290.593 71.2649C292.249 73.1834 295.23 73.5577 297.458 72.5108C299.891 71.1479 300.328 68.0596 300.328 65.527C300.282 63.24 300.521 60.6255 298.876 58.7947C297.552 57.04 295.108 56.5136 293.06 57.0692Z" fill="#414141"/>
<path d="M392.781 41.2066C395.96 39.2589 399.087 37.2175 402.289 35.2991C402.231 40.1362 402.272 44.9734 402.266 49.8106C404.302 49.7989 406.344 49.8047 408.379 49.8281C407.545 52.4543 406.74 55.0923 405.918 57.7185C404.693 57.7243 403.468 57.7302 402.254 57.7419C402.278 65.334 402.249 72.9319 402.272 80.524C399.087 80.5357 395.908 80.5357 392.723 80.524C392.764 72.926 392.729 65.334 392.746 57.736C391.276 57.7302 389.812 57.7302 388.354 57.7243C389.205 55.0864 390.016 52.4426 390.833 49.793C391.317 49.7872 392.279 49.7755 392.764 49.7696C392.787 46.9153 392.764 44.0609 392.781 41.2066Z" fill="#414141"/>
<path d="M227.711 36.5917C231.473 35.1119 235.492 38.8904 234.693 42.7332C234.39 46.6579 229.233 48.9917 226.252 46.2719C222.886 43.8211 223.802 37.9428 227.711 36.5917Z" fill="#414141"/>
<path d="M321.58 36.5157C324.782 35.4277 328.335 38.13 328.34 41.464C328.632 44.0375 326.876 46.7164 324.327 47.2896C321.725 47.9974 318.902 46.2485 318.08 43.7392C317.03 40.9083 318.698 37.4164 321.58 36.5157Z" fill="#414141"/>
<path d="M377.131 36.6034C380.62 35.1996 384.551 38.4225 384.178 42.0898C384.336 46.114 379.278 49.056 376.006 46.5175C372.342 44.2247 373.06 38.013 377.131 36.6034Z" fill="#414141"/>
<path d="M124.291 36.6326C129.728 36.6092 135.159 36.6268 140.595 36.6151C143.483 36.6151 146.481 37.3111 148.774 39.1594C154.706 43.7919 153.907 55.0864 146.446 57.7711C150.413 58.3385 153.726 61.5847 154.537 65.4919C155.33 69.3874 154.543 73.7742 151.795 76.7572C149.73 79.1202 146.644 80.483 143.524 80.5181C137.113 80.5474 130.708 80.5298 124.297 80.524C124.32 65.8896 124.332 51.2611 124.291 36.6326ZM134.657 43.786C134.657 47.4768 134.651 51.1617 134.657 54.8466C137.387 54.753 140.84 55.4842 142.783 53.0159C144.253 50.7991 144.224 47.5002 142.59 45.377C140.56 43.207 137.311 43.8679 134.657 43.786ZM134.657 61.2981C134.657 65.1994 134.657 69.1066 134.657 73.0138C137.037 72.9377 139.504 73.2887 141.814 72.5693C145.495 71.3234 145.769 66.1294 143.979 63.2517C141.663 60.6489 137.76 61.4209 134.657 61.2981Z" fill="#414141"/>
<path d="M224.508 53.8406C227.658 52.1034 230.773 50.296 233.952 48.6057C233.94 59.2451 234.028 69.8904 233.911 80.5298C230.79 80.5415 227.67 80.5064 224.555 80.5532C224.432 71.6509 224.525 62.7487 224.508 53.8406Z" fill="#414141"/>
<path d="M242.357 53.6768C245.379 51.9923 248.36 50.2259 251.382 48.5238C251.376 50.1147 251.376 51.7057 251.37 53.2908C255.342 47.9915 264.145 47.4359 268.759 52.1736C270.83 54.3026 271.332 57.4085 271.326 60.2687C271.32 67.0243 271.332 73.7742 271.314 80.524C268.141 80.5474 264.973 80.5006 261.8 80.5532C261.701 74.5521 261.806 68.5509 261.753 62.5498C261.747 60.953 261.287 59.1457 259.857 58.2508C257.816 57.0751 254.911 57.4377 253.382 59.2977C252.14 60.643 251.848 62.5557 251.877 64.3221C251.912 69.7208 251.872 75.1194 251.907 80.524C248.722 80.5357 245.542 80.5357 242.357 80.524C242.433 71.5749 242.258 62.6259 242.357 53.6768Z" fill="#414141"/>
<path d="M318.133 53.8698C321.254 52.08 324.421 50.3604 327.548 48.5647C327.565 59.2217 327.536 69.8728 327.565 80.524C324.415 80.5357 321.277 80.5357 318.133 80.524C318.15 71.6392 318.144 62.7545 318.133 53.8698Z" fill="#414141"/>
<path d="M162.062 53.7704C165.066 52.0215 168.065 50.2609 171.075 48.5179C171.075 50.2668 171.075 52.0215 171.046 53.7704C173.542 49.8866 178.506 48.2079 182.893 49.5064C182.053 52.6942 181.242 55.8936 180.431 59.0872C178.95 58.5666 177.34 58.1396 175.811 58.7655C173.011 59.6487 171.67 62.7311 171.646 65.486C171.553 70.5045 171.681 75.523 171.588 80.5415C168.415 80.5181 165.247 80.5298 162.074 80.5357C162.039 71.6159 162.062 62.6902 162.062 53.7704Z" fill="#414141"/>
<path d="M195.131 49.5415C199.284 48.5998 204.295 49.4187 207.025 52.9749C207.008 51.9221 207.008 50.8693 207.002 49.8164C210.035 49.793 213.074 49.8164 216.108 49.7989C216.148 60.0289 216.055 70.253 216.154 80.4772C213.121 80.6 210.088 80.4889 207.054 80.5532C207.019 79.4887 207.008 78.4242 207.025 77.3596C202.726 82.9338 193.177 82.8285 188.843 77.3362C185.232 72.9553 184.619 66.8313 185.477 61.3917C186.358 56.1802 189.828 50.957 195.131 49.5415ZM198.549 57.543C196.111 58.8064 194.95 61.6842 194.886 64.3279C194.682 67.1238 195.335 70.2823 197.692 72.0604C200.317 74.1485 205.088 73.1893 205.993 69.7266C206.786 66.884 206.809 63.8132 206.278 60.9238C205.508 57.6308 201.478 55.993 198.549 57.543Z" fill="#414141"/>
<path d="M344.16 49.7111C348.436 48.4653 353.616 49.2783 356.574 52.8462C356.55 51.8343 356.539 50.8225 356.533 49.8106C359.537 49.8047 362.541 49.8047 365.545 49.8106C365.534 59.5259 365.54 69.2411 365.545 78.9623C365.575 81.8985 364.945 85.016 362.909 87.2445C360.529 90.1106 356.976 91.7483 353.348 92.2923C347.38 93.1638 340.97 92.3274 335.86 88.9466C337.096 86.7123 338.286 84.4545 339.494 82.2085C342.72 84.8172 347.065 85.7589 351.12 85.133C353.05 84.7821 355.034 83.7643 355.932 81.9336C356.819 80.2198 356.486 78.2194 356.585 76.3711C354.112 80.1145 349.16 81.0679 345.012 80.2959C340.719 79.4828 337.347 75.9617 335.935 71.9259C334.611 68.1591 334.5 64.0062 335.311 60.1166C336.32 55.5017 339.546 51.1442 344.16 49.7111ZM349.113 57.1102C346.529 57.9349 344.971 60.5904 344.627 63.1698C344.277 65.9715 344.481 69.1885 346.523 71.3526C348.95 74.0783 354.27 73.546 355.629 69.9781C356.615 67.2759 356.253 64.2928 356.09 61.4794C355.85 58.1981 352.123 56.0691 349.113 57.1102Z" fill="#414141"/>
<path d="M373.975 53.823C377.107 52.08 380.234 50.3253 383.366 48.5881C383.36 59.2334 383.378 69.8845 383.36 80.5298C380.222 80.5298 377.09 80.5415 373.963 80.524C373.998 71.6217 373.975 62.7253 373.975 53.823Z" fill="#414141"/>
</svg>
