<svg width="248" height="141" viewBox="0 0 248 141" fill="none" xmlns="http://www.w3.org/2000/svg">
<path d="M172.236 3.18172C181.756 1.35505 191.476 -0.804948 201.21 0.301719C201.21 0.568386 201.196 1.12839 201.196 1.39505C192.196 2.66172 183.41 5.19505 174.836 8.18172C151.876 15.5684 130.436 26.7951 109.65 38.8751C91.0362 50.5417 73.1829 63.5151 57.2895 78.7284C53.5029 82.3951 49.8495 86.1817 46.1029 89.8884C45.7695 90.0351 45.1029 90.3151 44.7695 90.4484C49.2629 85.9017 52.4095 80.2617 56.4629 75.3551C76.8629 51.0084 101.97 30.1817 130.983 16.9417C136.97 14.2751 142.89 11.2751 149.343 9.88838C151.676 10.5417 153.956 9.83505 155.796 8.38172C160.556 4.86172 166.716 4.74172 172.236 3.18172Z" fill="#F74F08"/>
<path d="M136.276 9.39504C142.73 8.47504 149.276 7.56837 155.796 8.38171C153.956 9.83504 151.676 10.5417 149.343 9.88837C142.89 11.275 136.97 14.275 130.983 16.9417C101.97 30.1817 76.8631 51.0084 56.4631 75.355C55.1165 61.0084 63.2365 47.8484 72.7565 37.8617C89.6765 21.1417 113.17 12.8617 136.276 9.39504Z" fill="#033E89"/>
<path d="M109.651 38.875C130.438 26.795 151.878 15.5683 174.838 8.18164C185.171 8.27497 195.664 9.98164 205.291 13.875C212.291 16.6616 219.131 21.7683 221.078 29.4083C222.558 34.1283 221.024 39.0083 220.224 43.7016C204.344 44.235 188.451 43.7416 172.584 43.9416C172.944 39.8616 172.838 34.7016 168.438 32.8083C159.331 28.8883 148.904 29.6483 139.371 31.4216C123.984 34.7016 112.091 47.8216 108.184 62.7416C106.998 67.3283 108.158 72.955 112.358 75.6483C118.118 79.515 125.358 79.5283 132.038 79.4483C142.971 79.1416 154.598 75.515 161.678 66.7016C162.784 64.9283 164.704 64.4083 166.704 64.675C181.344 64.755 195.984 64.5683 210.624 64.8083C199.251 82.9016 178.811 92.675 158.664 97.5283C137.291 102.435 114.971 103.168 93.251 100.262C79.331 98.035 63.3043 92.795 57.291 78.7283C73.1843 63.515 91.0377 50.5416 109.651 38.875Z" fill="#033E89"/>
<path d="M2.17047 138.048C-4.14953 127.635 4.19714 112.448 16.0638 111.075C20.3038 110.528 25.4771 110.728 28.3838 114.355C29.9171 116.662 29.6371 119.555 29.7838 122.195C26.9838 122.195 24.1971 122.182 21.3971 122.168C20.8105 119.528 19.2371 117.248 16.1838 117.822C10.0905 119.902 8.3438 127.462 10.0638 133.062C13.9438 133.742 17.6105 132.448 19.3038 128.702C22.1838 128.648 25.0638 128.648 27.9571 128.702C24.3571 138.928 11.4905 143.395 2.17047 138.048Z" fill="#033E89"/>
<path d="M104.916 110.995C107.69 110.928 110.463 110.875 113.236 110.862C112.796 112.835 112.356 114.795 111.903 116.768C109.036 116.795 106.183 116.822 103.316 116.808C103.85 114.862 104.383 112.928 104.916 110.995Z" fill="#033E89"/>
<path d="M88.9843 112.475C91.7577 112.502 94.531 112.528 97.3043 112.582C96.7043 114.435 96.091 116.302 95.491 118.168C96.4643 118.382 98.4243 118.835 99.3977 119.048C98.9177 120.555 98.4377 122.075 97.971 123.582C97.0243 123.568 95.1443 123.555 94.1977 123.542C93.2643 126.822 92.3577 130.115 91.5043 133.408C92.3843 133.462 94.131 133.555 95.011 133.608C94.5977 135.608 94.1977 137.622 93.7977 139.635C90.2243 139.875 86.651 139.728 83.1043 139.328C82.1443 133.848 84.5977 128.702 85.851 123.502C85.1577 123.555 83.771 123.662 83.0777 123.715C83.4243 122.168 83.771 120.622 84.1043 119.075C84.9577 118.875 86.6377 118.475 87.4777 118.288C87.971 116.342 88.4777 114.408 88.9843 112.475Z" fill="#033E89"/>
<path d="M197.89 112.528C200.583 112.542 203.276 112.542 205.97 112.528C205.476 114.648 204.983 116.768 204.49 118.902C205.396 118.915 207.223 118.942 208.13 118.955C207.676 120.515 207.236 122.075 206.796 123.648C205.836 123.648 203.916 123.648 202.956 123.662C202.05 126.755 200.93 129.835 200.65 133.075C201.463 133.328 203.103 133.835 203.93 134.088L204.543 134.462C206.543 133.102 206.463 129.742 208.97 128.822C213.29 126.888 218.29 127.288 222.61 125.342C223.796 122.262 219.343 123.208 218.01 124.088C214.956 125.902 211.41 125.355 208.116 124.702C212.743 117.182 222.65 117.168 230.17 119.542C231.903 126.435 227.61 132.835 226.93 139.608C223.796 139.502 220.676 139.368 217.57 138.942C213.996 139.982 210.236 140.608 206.61 139.422C205.93 138.768 204.583 137.488 203.903 136.835C203.356 137.555 202.276 138.995 201.743 139.715C198.37 139.315 192.37 141.448 191.396 136.835C191.77 132.235 193.583 127.888 194.623 123.408C193.93 123.488 192.543 123.648 191.85 123.728C192.13 122.528 192.703 120.155 192.983 118.955C193.756 118.955 195.303 118.942 196.063 118.928C196.663 116.782 197.263 114.648 197.89 112.528ZM212.996 135.088C216.77 135.742 220.156 134.248 221.463 130.502C218.13 130.942 214.663 131.822 212.996 135.088Z" fill="#033E89"/>
<path d="M239.236 111.675C241.996 111.608 244.756 111.555 247.516 111.528C245.196 120.888 242.25 130.088 239.823 139.422C237.023 139.422 234.236 139.462 231.463 139.515C233.863 130.182 236.783 120.995 239.236 111.675Z" fill="#033E89"/>
<path d="M38.0242 119.435C43.0642 117.208 52.1442 117.088 53.5575 123.835C55.4775 135.048 41.7708 144.368 32.0642 138.662C25.6108 133.048 31.1442 122.168 38.0242 119.435ZM39.3708 125.915C37.7175 128.408 37.9175 131.555 37.6642 134.422C39.3708 134.102 41.3575 134.488 42.8508 133.422C45.1042 130.848 45.0775 127.248 45.3175 124.035C43.3442 124.502 40.4375 123.622 39.3708 125.915Z" fill="#033E89"/>
<path d="M59.3162 118.995C61.6896 118.848 64.0496 118.715 66.4229 118.568C66.3696 119.182 66.2362 120.408 66.1696 121.035C70.1162 118.888 77.1562 115.915 79.6896 121.368C80.3296 127.608 77.1696 133.488 75.8496 139.488C73.0762 139.488 70.3162 139.488 67.5562 139.475C68.9829 134.662 70.4762 129.862 71.1429 124.875C69.9696 124.875 67.6096 124.902 66.4362 124.902C64.4496 129.582 63.0762 134.488 61.8629 139.422C59.0629 139.462 56.2629 139.488 53.4629 139.488C55.3562 132.648 57.3296 125.808 59.3162 118.995Z" fill="#033E89"/>
<path d="M102.797 118.808C105.557 118.795 108.317 118.795 111.077 118.835C109.237 125.755 107.304 132.662 105.224 139.515C102.517 139.488 99.8105 139.475 97.1172 139.475C98.7572 132.515 100.824 125.675 102.797 118.808Z" fill="#033E89"/>
<path d="M115.611 118.915C118.078 118.862 120.558 118.808 123.025 118.768C123.011 119.328 122.998 120.435 122.985 120.995C126.745 118.475 131.158 117.728 135.478 119.235C137.451 126.168 133.691 132.795 132.251 139.448C129.491 139.448 126.731 139.448 123.971 139.435C125.198 134.635 127.025 129.928 127.411 124.955C125.665 124.862 123.411 124.182 122.451 126.182C120.251 130.328 119.558 135.062 118.145 139.502C115.398 139.475 112.665 139.462 109.918 139.448C111.731 132.582 113.758 125.768 115.611 118.915Z" fill="#033E89"/>
<path d="M138.425 136.395C135.678 128.768 141.758 119.888 149.518 118.515C153.491 117.702 158.945 117.742 161.198 121.755C163.051 124.608 161.958 128.088 161.438 131.168C156.211 130.982 150.985 130.928 145.758 131.088C145.825 131.968 145.958 133.742 146.025 134.622C150.905 134.528 155.611 132.782 160.545 133.408C158.145 136.275 155.371 139.128 151.505 139.728C147.091 140.622 141.011 140.835 138.425 136.395ZM146.931 126.742C149.611 126.808 152.291 126.848 154.985 126.875C154.278 125.328 154.371 122.595 151.958 123.128C149.491 122.648 148.385 125.302 146.931 126.742Z" fill="#033E89"/>
<path d="M162.451 139.462C164.171 132.502 166.198 125.622 168.131 118.715C172.171 118.755 176.238 119.955 180.238 118.848C182.718 118.115 185.251 118.795 187.731 119.168C190.291 125.995 185.998 132.742 184.758 139.408C181.971 139.435 179.185 139.448 176.411 139.448C177.771 134.475 179.598 129.568 179.838 124.368C177.838 124.835 175.225 124.968 174.291 127.168C172.705 131.155 171.785 135.368 170.585 139.488C167.878 139.475 165.158 139.462 162.451 139.462Z" fill="#033E89"/>
</svg>
