<svg width="146" height="32" viewBox="0 0 146 32" fill="none" xmlns="http://www.w3.org/2000/svg">
<g clip-path="url(#clip0_219_205)">
<path d="M22.5497 32.0001H3.05759C2.24667 32.0001 1.46896 31.679 0.895548 31.1074C0.322138 30.5359 0 29.7607 0 28.9524C0 28.1442 0.322138 27.369 0.895548 26.7974C1.46896 26.2259 2.24667 25.9048 3.05759 25.9048H15.6702V19.0477H3.05759C2.24667 19.0477 1.46896 18.7266 0.895548 18.155C0.322138 17.5835 0 16.8083 0 16.0001V3.04768C0 2.2394 0.322138 1.46422 0.895548 0.892683C1.46896 0.321144 2.24667 5.64525e-05 3.05759 5.64525e-05H29.0471C29.858 5.64525e-05 30.6358 0.321144 31.2092 0.892683C31.7826 1.46422 32.1047 2.2394 32.1047 3.04768C32.1047 3.85595 31.7826 4.63113 31.2092 5.20267C30.6358 5.77421 29.858 6.09529 29.0471 6.09529H6.87958V12.9524H19.4921C20.3031 12.9524 21.0808 13.2735 21.6542 13.8451C22.2276 14.4166 22.5497 15.1918 22.5497 16.0001V25.9048H29.0471C29.858 25.9048 30.6358 26.2259 31.2092 26.7974C31.7826 27.369 32.1047 28.1442 32.1047 28.9524C32.1047 29.7607 31.7826 30.5359 31.2092 31.1074C30.6358 31.679 29.858 32.0001 29.0471 32.0001H22.5497ZM120.605 25.4446C120.605 21.642 123.395 18.9182 127.229 18.9182C131.043 18.9182 133.833 21.6423 133.833 25.4446C133.833 29.2469 131.043 31.9711 127.229 31.9711C123.395 31.9711 120.605 29.2469 120.605 25.4446ZM123.376 25.4446C123.376 27.7905 124.875 29.5875 127.229 29.5875C129.563 29.5875 131.063 27.7905 131.063 25.4446C131.063 23.0801 129.563 21.3014 127.229 21.3014C124.875 21.3014 123.376 23.0797 123.376 25.4446H123.376ZM54.3659 29.9658L55.8465 27.8656C56.3654 28.409 56.9895 28.8417 57.6811 29.1376C58.3727 29.4335 59.1173 29.5865 59.8699 29.5871C61.3693 29.5871 62.0718 28.925 62.0718 28.1871C62.0718 25.9928 54.7836 27.525 54.7836 22.7776C54.7836 20.6778 56.6056 18.9372 59.5856 18.9372C61.5975 18.9372 63.2677 19.5425 64.5202 20.6964L63.0208 22.7018C62.0094 21.7995 60.696 21.3069 59.3387 21.3208C58.1997 21.3208 57.5546 21.813 57.5546 22.5696C57.5546 24.5559 64.824 23.2126 64.824 27.9235C64.824 30.2313 63.1538 31.9719 59.756 31.9719C57.3081 31.9711 55.5614 31.1574 54.3659 29.9658ZM142.887 31.7441L140.401 27.2606H138.427V31.7441H135.731V19.1262H141.653C144.29 19.1262 145.924 20.8477 145.924 23.1936C145.924 25.4069 144.5 26.6176 143.134 26.9391L146 31.7441H142.887ZM138.427 24.8957H141.274C142.337 24.8957 143.153 24.2526 143.153 23.1742C143.153 22.1338 142.337 21.4903 141.274 21.4903H138.427V24.8957ZM113.546 31.7441V21.4907H109.844V19.1262H119.941V21.4907H116.259V31.7441H113.546ZM107.605 31.7441L106.808 29.6065H101.381L100.584 31.7441H97.5265L102.404 19.1258H105.783L110.661 31.7441H107.605ZM102.119 27.2416H106.067L104.093 21.8122L102.119 27.2416ZM93.6342 31.7441V22.6446L90.0659 31.7441H88.8892L85.3221 22.6446V31.7441H82.6268V19.1262H86.4041L89.4785 27.0145L92.5533 19.1262H96.3493V31.7441H93.6342ZM77.4255 31.7441V19.1262H80.1204V31.7441H77.4255ZM69.3022 31.7441V21.4907H65.6014V19.1262H75.6987V21.4907H72.0166V31.7441H69.3022ZM44.173 31.7441V19.1262H53.1318V21.4907H46.8691V24.1391H52.9995V26.5037H46.8691V29.3791H53.1325V31.7441H44.173ZM27.5183 18.6667C27.1129 18.6667 26.724 18.5062 26.4373 18.2204C26.1506 17.9346 25.9895 17.5471 25.9895 17.1429V14.4762C25.9895 14.0721 26.1506 13.6845 26.4373 13.3988C26.724 13.113 27.1129 12.9524 27.5183 12.9524H30.5759C30.9814 12.9524 31.3702 13.113 31.6569 13.3988C31.9436 13.6845 32.1047 14.0721 32.1047 14.4762C32.1047 15.0265 31.996 15.5715 31.7847 16.0799C31.5734 16.5883 31.2637 17.0502 30.8733 17.4394C30.4829 17.8285 30.0195 18.1371 29.5094 18.3477C28.9993 18.5583 28.4526 18.6667 27.9005 18.6667H27.5183ZM96.2159 6.52653C96.2159 2.62863 99.1577 5.64525e-05 102.973 5.64525e-05C104.054 -0.0325364 105.123 0.23953 106.056 0.785013C106.99 1.3305 107.75 2.12728 108.249 3.08387L105.934 4.21872C105.65 3.67662 105.226 3.22034 104.705 2.89754C104.184 2.57475 103.586 2.39728 102.973 2.38368C100.657 2.38368 98.9872 4.14329 98.9872 6.52691C98.9872 8.91053 100.657 10.6702 102.973 10.6702C103.586 10.6565 104.184 10.4791 104.705 10.1563C105.226 9.83348 105.65 9.3772 105.934 8.8351L108.249 9.95129C107.748 10.9078 106.988 11.7054 106.056 12.2537C105.123 12.802 104.055 13.0791 102.973 13.0538C99.1577 13.0534 96.2159 10.4046 96.2159 6.52653ZM43.3008 11.0477L44.7815 8.94787C45.3004 9.49118 45.9245 9.92389 46.6161 10.2198C47.3077 10.5157 48.0523 10.6687 48.8049 10.6694C50.3043 10.6694 51.0067 10.0069 51.0067 9.26939C51.0067 7.07472 43.7186 8.60691 43.7186 3.85987C43.7186 1.75968 45.5405 0.019485 48.5205 0.019485C50.5324 0.019485 52.2026 0.624818 53.4551 1.7791L51.9557 3.78406C50.9439 2.88108 49.6298 2.38818 48.2717 2.40234C47.1332 2.40234 46.488 2.89453 46.488 3.6511C46.488 5.63777 53.7574 4.29415 53.7574 9.00501C53.7574 11.3132 52.0872 13.0534 48.6895 13.0534C46.243 13.0534 44.4964 12.2397 43.3008 11.0477ZM109.863 12.826V0.208056H118.821V2.57301H112.558V5.22177H118.688V7.58634H112.558V10.4618H118.821V12.8263L109.863 12.826ZM91.623 12.826V0.208056H94.3183V12.8263L91.623 12.826ZM82.19 12.826L77.3124 0.208056H80.368L83.8793 9.89377L87.3906 0.208056H90.4462L85.5686 12.8263L82.19 12.826ZM73.7816 12.826L71.2958 8.34291H69.3221V12.8263H66.6268V0.208056H72.5486C75.1858 0.208056 76.8189 1.92958 76.8189 4.27548C76.8189 6.48882 75.3956 7.69948 74.0289 8.02101L76.8954 12.8263L73.7816 12.826ZM69.3221 5.97796H72.1687C73.2316 5.97796 74.048 5.33491 74.048 4.25644C74.048 3.21606 73.2316 2.57263 72.1687 2.57263H69.3221V5.97796ZM55.5629 12.8263V0.208056H64.5217V2.57301H58.2567V5.22177H64.3875V7.58634H58.2567V10.4618H64.5202V12.8263H55.5629Z" fill="#30AF38"/>
</g>
<defs>
<clipPath id="clip0_219_205">
<rect width="146" height="32" fill="white"/>
</clipPath>
</defs>
</svg>
