<svg width="290" height="56" viewBox="0 0 290 56" fill="none" xmlns="http://www.w3.org/2000/svg">
<path d="M0.248535 0.792876C3.55914 0.792876 6.86279 0.778962 10.1734 0.799827C10.3542 8.73553 10.2638 16.6712 10.2499 24.6C20.0217 25.0312 29.8701 25.4624 39.621 24.5444C39.6628 16.9842 39.4819 9.41017 39.6976 1.84308C39.9132 1.60661 40.3444 1.11976 40.56 0.876333C43.6758 0.639862 46.7986 0.820696 49.9215 0.841561C50.0536 18.9595 50.0188 37.0774 49.9354 55.1952C46.5205 55.2022 43.1055 55.23 39.6906 55.1883C39.5098 47.8646 39.6697 40.541 39.5932 33.2173C29.8353 32.7096 20.0356 32.9669 10.2708 33.0782C10.1943 40.4436 10.382 47.8159 10.1943 55.1813C6.84192 55.23 3.48263 55.2231 0.1303 55.1535C-0.113126 42.2658 0.0955242 29.3712 0.0259737 16.4835C0.109434 11.2533 -0.196588 6.00916 0.248535 0.792876Z" fill="#FF8202"/>
<path d="M82.0966 0C84.2875 0.0347752 86.4852 -0.0765085 88.6761 0.159963C90.693 2.11433 91.5903 4.87548 92.9326 7.28193C100.959 23.2507 109.187 39.1221 117.171 55.1118C113.575 55.1465 109.959 55.4317 106.377 55.0422C99.1852 41.5842 92.7517 27.6533 85.5046 14.1883C79.7597 23.7306 75.5311 34.1006 70.2452 43.9002C68.1726 47.5169 66.9207 51.5786 64.6186 55.0631C61.0507 55.4039 57.4549 55.1674 53.873 55.1187C59.5623 43.3925 65.6827 31.875 71.4484 20.1835C75.0859 13.5067 78.014 6.43342 82.0966 0Z" fill="#FF8202"/>
<path d="M120.766 0.758094C127.902 0.688544 135.031 0.744182 142.167 0.723317C146.097 0.758092 150.124 0.45903 153.935 1.64139C159.617 3.0324 165.07 6.69075 167.289 12.2826C170.335 18.4726 168.819 26.5265 163.804 31.2351C160.793 34.1075 156.696 35.276 152.829 36.4792C159.019 42.7109 165.418 48.7479 171.517 55.07C167.79 55.2091 164.048 55.3483 160.32 55.1535C158.943 55.0909 158.115 53.7903 157.155 52.9696C151.104 46.717 145.248 40.2697 139.197 34.0171C137.66 32.6748 137.744 30.5883 138.029 28.7522C143.509 28.46 149.595 29.865 154.429 26.5474C158.296 24.2522 159.75 18.8482 157.614 14.9047C155.326 11.1003 150.757 8.95114 146.382 9.15283C141.145 9.1737 135.908 9.1737 130.67 9.15979C130.643 23.4455 130.65 37.7242 130.67 52.0029C130.643 53.074 130.65 54.2076 130.017 55.1326C126.845 55.3552 123.667 55.1535 120.495 55.1813C120.238 41.3547 120.454 27.5281 120.384 13.7014C120.467 9.38931 120.092 5.0424 120.766 0.758094Z" fill="#FF8202"/>
<path d="M204.734 0.146059C207.077 -0.0765023 209.435 0.0695539 211.793 0.0973741C220.96 18.4796 230.599 36.6253 239.537 55.1257C236.003 55.1326 232.422 55.5152 228.916 54.9588C227.678 53.2757 226.892 51.3213 225.967 49.4643C220.09 37.8841 214.227 26.2831 208.42 14.6612C208.162 14.6682 207.648 14.6821 207.397 14.6821C200.623 28.1471 193.786 41.5842 187.249 55.1674C183.722 55.2161 180.189 55.2439 176.67 55.1396C178.381 50.2224 181.142 45.7781 183.382 41.1043C189.565 28.6826 195.977 16.3861 202.111 3.95047C202.835 2.59424 203.579 1.19627 204.734 0.146059Z" fill="#FF8202"/>
<path d="M226.705 0.716369C241.958 0.744189 257.203 0.667682 272.456 0.758097C272.602 3.3106 272.595 5.87701 272.553 8.43647C266.62 8.4782 260.688 8.40865 254.755 8.46429C254.407 24.1827 254.741 39.908 254.581 55.6334C251.285 55.7447 247.981 55.7099 244.684 55.6264C244.601 41.4103 244.643 27.1942 244.636 12.9781C244.622 11.4689 244.448 9.96658 244.239 8.4782C238.376 8.42256 232.52 8.45038 226.664 8.45733C226.608 5.87701 226.587 3.29669 226.705 0.716369Z" fill="#FF8202"/>
<path d="M280.114 0.785912C283.369 0.785912 286.63 0.792866 289.892 0.806776C290.052 18.8203 290.011 36.8409 289.92 54.8544C286.707 55.6125 283.362 55.07 280.093 55.1813C280.058 37.0495 280.051 18.9177 280.114 0.785912Z" fill="#FF8202"/>
<path d="M82.8905 34.3788C83.4955 32.2436 86.7644 32.2158 87.3765 34.3649C90.6106 40.7844 94.1159 47.0856 96.9883 53.679C92.864 54.5901 88.6284 54.2076 84.4414 54.2702C80.7344 54.2215 76.9856 54.5206 73.3203 53.8112C76.151 47.1622 79.6633 40.8331 82.8905 34.3788Z" fill="#FF8202"/>
</svg>
