<svg width="104" height="40" viewBox="0 0 104 40" fill="none" xmlns="http://www.w3.org/2000/svg">
<path d="M31.5217 8.52085L31.7071 8.64227C32.6128 9.27799 33.156 10.3043 33.156 11.4034V27.8762C33.156 29.0483 32.5383 30.138 31.5217 30.7587L18.4188 38.7579C17.2927 39.4453 15.8643 39.445 14.7381 38.7579L1.63433 30.7579C0.617555 30.1372 0 29.0477 0 27.8754V11.4034C0 10.2312 0.617601 9.14079 1.63433 8.52004L7.44311 4.97373C7.46094 6.57862 8.17373 8.08589 9.37694 9.13686L4.63343 12.0323V27.248L13.8371 32.8658V18.6975C13.8371 17.1717 15.074 15.9341 16.5999 15.934C18.1258 15.934 19.3634 17.1716 19.3634 18.6975V32.8391L28.5226 27.2472V12.0323L23.4148 8.91425C24.4864 7.86447 25.1072 6.43004 25.1074 4.91302V4.60461L31.5217 8.52085Z" fill="#EF4E31"/>
<path fill-rule="evenodd" clip-rule="evenodd" d="M19.0862 1.04284L17.9858 0.418228C17.0035 -0.139165 15.7574 -0.13951 14.7751 0.417797L13.9265 0.899487L13.2624 1.27642L12.3984 1.76685C12.2431 1.85499 12.0985 1.95476 11.9655 2.0645C11.5386 2.41694 11.2321 2.87219 11.0803 3.3746C11.0702 3.4081 11.0608 3.4418 11.052 3.47571C10.9996 3.67922 10.9722 3.88968 10.9722 4.10356L10.972 4.73121C10.972 4.94539 10.9994 5.1562 11.052 5.36001C11.0906 5.50943 11.1427 5.65511 11.2075 5.79562C11.4464 6.31374 11.8577 6.76157 12.3981 7.06828L12.8209 7.30817L13.2624 7.55869L14.6703 8.35753C14.6884 8.36782 14.7066 8.37793 14.725 8.38783C14.7387 8.39528 14.7525 8.4026 14.7663 8.40981C14.7837 8.41885 14.8011 8.42775 14.8186 8.43647C15.028 8.54083 15.2477 8.62109 15.4728 8.67726C16.2056 8.86003 16.9968 8.78771 17.6832 8.46034C17.7501 8.42846 17.8159 8.39418 17.8806 8.35746L18.1217 8.22067L18.2111 8.16994L19.8936 7.21528L20.1161 7.08907L20.1529 7.06817C20.8437 6.67613 21.3231 6.05357 21.5014 5.3484C21.5461 5.17129 21.5719 4.98899 21.5772 4.80381C21.5779 4.77967 21.5783 4.75548 21.5783 4.73126L21.5786 3.98475C21.5786 3.3681 21.3516 2.77978 20.9499 2.30514C20.7326 2.04838 20.4641 1.8249 20.1528 1.6482L19.8936 1.50111L19.0862 1.04284Z" fill="#151F30"/>
<path d="M64.6163 8.80249H60.1144V14.5349H64.2687V16.8328H60.1144V22.6814H64.6632V25.0017H57.7238V6.4812H64.6163V8.80249ZM71.2941 17.946V6.4812H73.545V25.0017H71.1779L67.9747 14.1404V25.0017H65.7472V6.4812H68.1378L71.2941 17.946ZM82.1847 8.80249H79.5616V25.0017H77.1017V8.80249H74.4327V6.4812H82.1847V8.80249ZM85.6154 25.0017H83.1085V6.4812H85.6154V25.0017ZM94.2423 8.80249H91.6202V25.0017H89.1593V8.80249H86.4904V6.4812H94.2423V8.80249ZM96.9523 6.4812C96.9599 6.50955 99.0873 14.4438 99.1105 15.2546C99.1336 14.4213 101.442 6.52239 101.454 6.4812H103.892L100.294 18.1785V25.0017H97.8107V18.2478L94.3995 6.4812H96.9523Z" fill="#001840"/>
<path d="M46.8127 25.0017H44.3059V6.4812H46.8127V25.0017ZM52.3987 6.4812C54.2088 6.4812 55.2305 7.08442 55.8108 8.31421C56.2982 9.31221 56.4143 12.9337 56.4143 15.3474C56.4143 19.1072 56.3681 22.2173 55.7415 23.3777C55.2541 24.2828 54.4415 25.0017 52.4456 25.0017H48.4534V6.4812H52.3987ZM50.844 22.9597H52.3293C53.072 22.9597 53.6063 22.6345 53.7688 21.9382C54.0472 20.7777 53.9778 18.573 53.9778 15.3474C53.9778 14.3262 53.8846 10.6123 53.7454 9.93921C53.5597 9.05734 53.0486 8.66284 52.3059 8.66284H50.844V22.9597Z" fill="#EF4E31"/>
<path d="M46.3616 28.3174C46.6896 28.3174 46.9933 28.3765 47.2717 28.4951C47.5501 28.6117 47.7758 28.7857 47.9485 29.0166C48.1233 29.2454 48.2193 29.5285 48.2366 29.8652H47.304C47.2845 29.6882 47.2329 29.5414 47.1487 29.4248C47.0645 29.3082 46.9554 29.2204 46.8215 29.1621C46.6878 29.1039 46.5341 29.0752 46.3616 29.0752C46.0941 29.0753 45.8781 29.1441 45.7141 29.2822C45.5523 29.4203 45.4342 29.6018 45.3586 29.8262C45.2831 30.0484 45.2454 30.2923 45.2454 30.5576C45.2454 30.821 45.2831 31.0655 45.3586 31.29C45.4341 31.5142 45.5525 31.6942 45.7141 31.8301C45.8781 31.966 46.0941 32.0341 46.3616 32.0342C46.6421 32.0342 46.8637 31.9579 47.0256 31.8047C47.1896 31.6494 47.2848 31.4292 47.3108 31.1445H48.2434C48.2175 31.5005 48.1255 31.8019 47.968 32.0479C47.8126 32.2916 47.5983 32.4772 47.3264 32.6045C47.0545 32.7296 46.7327 32.792 46.3616 32.792C45.9365 32.7919 45.5696 32.7 45.261 32.5166C44.9547 32.331 44.7182 32.0724 44.552 31.7402C44.3879 31.4057 44.3059 31.0109 44.3059 30.5576C44.306 30.1045 44.388 29.7105 44.552 29.376C44.7182 29.0393 44.9545 28.7792 45.261 28.5957C45.5696 28.4101 45.9365 28.3174 46.3616 28.3174ZM50.8704 28.3174C51.3127 28.3174 51.6862 28.4102 51.9905 28.5957C52.2948 28.7792 52.5263 29.0393 52.6838 29.376C52.8435 29.7105 52.923 30.1045 52.9231 30.5576C52.9231 31.0109 52.8436 31.4057 52.6838 31.7402C52.5263 32.0725 52.2948 32.331 51.9905 32.5166C51.6861 32.7 51.3128 32.792 50.8704 32.792C50.428 32.792 50.0538 32.7 49.7473 32.5166C49.4431 32.331 49.2108 32.0725 49.051 31.7402C48.8934 31.4057 48.8147 31.0109 48.8147 30.5576C48.8147 30.1045 48.8935 29.7105 49.051 29.376C49.2108 29.0394 49.443 28.7791 49.7473 28.5957C50.0537 28.4102 50.4281 28.3174 50.8704 28.3174ZM82.3293 28.3174C82.6574 28.3174 82.961 28.3764 83.2395 28.4951C83.5179 28.6117 83.7436 28.7857 83.9163 29.0166C84.0911 29.2454 84.1871 29.5285 84.2043 29.8652H83.2717C83.2523 29.6883 83.2006 29.5414 83.1165 29.4248C83.0323 29.3082 82.9231 29.2204 82.7893 29.1621C82.6555 29.1039 82.502 29.0752 82.3293 29.0752C82.0618 29.0752 81.8459 29.1441 81.6819 29.2822C81.52 29.4204 81.401 29.6017 81.3254 29.8262C81.2499 30.0484 81.2122 30.2923 81.2122 30.5576C81.2122 30.821 81.2499 31.0655 81.3254 31.29C81.401 31.5144 81.5201 31.6941 81.6819 31.8301C81.8459 31.966 82.0618 32.0342 82.3293 32.0342C82.61 32.0342 82.8315 31.9579 82.9934 31.8047C83.1574 31.6493 83.2526 31.4293 83.2786 31.1445H84.2112C84.1852 31.5005 84.0933 31.8019 83.9358 32.0479C83.7804 32.2917 83.5661 32.4772 83.2942 32.6045C83.0223 32.7296 82.7005 32.792 82.3293 32.792C81.9042 32.792 81.5374 32.7001 81.2288 32.5166C80.9224 32.331 80.686 32.0725 80.5198 31.7402C80.3557 31.4057 80.2737 31.0109 80.2737 30.5576C80.2737 30.1045 80.3558 29.7105 80.5198 29.376C80.686 29.0394 80.9223 28.7791 81.2288 28.5957C81.5374 28.4102 81.9043 28.3174 82.3293 28.3174ZM55.9377 30.3887L57.1047 28.376H58.1086V32.7344H57.2151V29.5498L56.1858 31.3418H55.6252L54.5793 29.5605V32.7344H53.7053V28.376H54.7512L55.9377 30.3887ZM61.2688 30.3887L62.4358 28.376H63.4397V32.7344H62.5461V29.5498L61.5168 31.3418H60.9563L59.9104 29.5605V32.7344H59.0364V28.376H60.0823L61.2688 30.3887ZM68.0071 32.7344H67.052L66.7415 31.7754H65.1643L64.8499 32.7344H63.9143L65.4817 28.376H66.4368L68.0071 32.7344ZM71.3792 31.3125V28.376H72.2336V32.7344H71.3401L69.3333 29.7773V32.7344H68.4817V28.376H69.3752L71.3792 31.3125ZM74.7258 28.376C75.1919 28.376 75.59 28.4622 75.9202 28.6348C76.2526 28.8075 76.5061 29.0561 76.6809 29.3799C76.8578 29.7036 76.9465 30.0918 76.9465 30.5449C76.9465 31.0132 76.857 31.4104 76.678 31.7363C76.501 32.0622 76.2466 32.3109 75.9143 32.4814C75.584 32.6498 75.186 32.7344 74.7219 32.7344H73.1653V28.376H74.7258ZM87.8909 29.1299H85.8733V30.1436H87.6995V30.8721H85.8733V31.9795H87.8909V32.7344H84.9631V28.376H87.8909V29.1299ZM91.5735 31.3125V28.376H92.428V32.7344H91.5344L89.5276 29.7773V32.7344H88.676V28.376H89.5696L91.5735 31.3125ZM96.1985 29.1338H95.0393V32.7344H94.1262V29.1338H92.967V28.376H96.1985V29.1338ZM99.6614 29.1299H97.6448V30.1436H99.4709V30.8721H97.6448V31.9795H99.6614V32.7344H96.7346V28.376H99.6614V29.1299ZM102.247 28.376C102.523 28.376 102.771 28.4154 102.991 28.4951C103.214 28.5728 103.39 28.7009 103.52 28.8779C103.649 29.0527 103.714 29.2859 103.714 29.5771C103.714 29.8533 103.639 30.0873 103.49 30.2793C103.342 30.4714 103.117 30.6084 102.817 30.6904C102.998 30.7185 103.144 30.7744 103.254 30.8564C103.366 30.9363 103.457 31.0463 103.526 31.1865C103.595 31.3268 103.658 31.5016 103.714 31.7109L103.995 32.7344H103.053L102.84 31.8916C102.788 31.676 102.729 31.5093 102.664 31.3906C102.602 31.2698 102.525 31.1852 102.432 31.1377C102.339 31.0902 102.22 31.0664 102.075 31.0664H101.357V32.7344H100.447V28.376H102.247ZM50.8704 29.0752C50.6049 29.0752 50.3898 29.1416 50.2258 29.2754C50.0618 29.4092 49.942 29.589 49.8665 29.8135C49.791 30.0378 49.7532 30.2859 49.7532 30.5576C49.7532 30.8251 49.791 31.0715 49.8665 31.2959C49.942 31.5203 50.0618 31.7002 50.2258 31.834C50.3898 31.9678 50.6049 32.0341 50.8704 32.0342C51.14 32.0342 51.356 31.9677 51.5178 31.834C51.6819 31.7002 51.8009 31.5204 51.8743 31.2959C51.9497 31.0715 51.9875 30.8251 51.9875 30.5576C51.9875 30.2859 51.9498 30.0378 51.8743 29.8135C51.8009 29.589 51.6819 29.4092 51.5178 29.2754C51.356 29.1418 51.14 29.0752 50.8704 29.0752ZM74.0745 31.9766H74.6252C74.9359 31.9766 75.1929 31.9248 75.3958 31.8213C75.6008 31.7155 75.7543 31.5563 75.8557 31.3447C75.9592 31.1311 76.0109 30.8626 76.011 30.5391C76.011 30.2304 75.9552 29.9719 75.843 29.7646C75.7329 29.5553 75.5745 29.3978 75.3694 29.292C75.1644 29.1864 74.9164 29.1338 74.6252 29.1338H74.0745V31.9766ZM65.3879 31.0215H66.5178L65.9543 29.2754L65.3879 31.0215ZM101.357 30.3154H102.092C102.234 30.3154 102.356 30.2923 102.457 30.2471C102.561 30.2017 102.64 30.1336 102.694 30.043C102.75 29.9524 102.779 29.8415 102.779 29.71C102.779 29.5178 102.719 29.3725 102.603 29.2754C102.488 29.1785 102.337 29.1299 102.15 29.1299H101.357V30.3154Z" fill="#001840"/>
</svg>
