<svg width="138" height="138" viewBox="0 0 138 138" fill="none" xmlns="http://www.w3.org/2000/svg">
<circle opacity="0.5" cx="69" cy="69" r="68.2398" stroke="#16509A" stroke-width="1.52047"/>
<circle opacity="0.5" cx="69.0024" cy="69" r="44.0292" stroke="#16509A" stroke-width="1.52047"/>
<path d="M39.1192 111.311L39.8816 111.828C40.2238 112.06 40.4818 112.276 40.6556 112.474C40.8294 112.673 40.9456 112.903 41.0042 113.163C41.1002 113.596 41.0082 114.018 40.7281 114.431C40.5676 114.668 40.3824 114.832 40.1724 114.925C39.976 115.019 39.7716 115.05 39.5594 115.016C39.7767 115.259 39.9111 115.527 39.9627 115.819C40.027 116.201 39.9243 116.59 39.6545 116.988C39.4052 117.355 39.0896 117.582 38.7076 117.668C38.1736 117.784 37.5921 117.628 36.963 117.201L35.7024 116.346L39.1192 111.311ZM39.3974 112.558L38.419 114L38.653 114.158C38.9348 114.35 39.188 114.426 39.4127 114.387C39.6289 114.35 39.8241 114.203 39.9983 113.947C40.1383 113.74 40.1872 113.538 40.145 113.341C40.0995 113.126 39.9384 112.925 39.6616 112.737L39.3974 112.558ZM37.9887 114.634L36.9641 116.143L37.4322 116.461C37.7794 116.697 38.0779 116.804 38.3278 116.782C38.5826 116.764 38.792 116.634 38.956 116.393C39.1028 116.176 39.1544 115.954 39.1107 115.726C39.0572 115.469 38.8442 115.214 38.4718 114.962L37.9887 114.634ZM44.1535 117.579L44.3684 117.187L45.1523 117.617L43.3059 120.984L42.522 120.555L42.7149 120.203C42.287 120.363 41.8677 120.331 41.457 120.106C40.9611 119.834 40.6602 119.44 40.5546 118.925C40.4542 118.412 40.5385 117.91 40.8075 117.419C41.0999 116.886 41.4911 116.546 41.9812 116.398C42.4795 116.248 42.958 116.299 43.4167 116.551C43.838 116.782 44.0836 117.124 44.1535 117.579ZM43.1267 117.307C42.8494 117.155 42.5657 117.135 42.2757 117.246C41.991 117.361 41.7654 117.57 41.5987 117.874C41.435 118.173 41.3814 118.473 41.438 118.774C41.5 119.079 41.6696 119.307 41.947 119.459C42.2136 119.605 42.4888 119.635 42.7724 119.548C43.0614 119.463 43.298 119.253 43.4822 118.917C43.6722 118.57 43.7251 118.253 43.6408 117.964C43.5647 117.672 43.3934 117.453 43.1267 117.307ZM47.4779 115.643L48.2902 116.017L45.5128 122.06L44.7005 121.686L47.4779 115.643ZM50.754 120.486L50.9139 120.069L51.7488 120.389L50.3744 123.975L49.5396 123.655L49.6832 123.281C49.2809 123.498 48.8611 123.522 48.4238 123.355C47.8956 123.152 47.5443 122.803 47.3699 122.306C47.2012 121.812 47.217 121.303 47.4172 120.781C47.6348 120.213 47.9765 119.823 48.4421 119.61C48.9156 119.394 49.3966 119.38 49.885 119.567C50.3336 119.739 50.6233 120.046 50.754 120.486ZM49.6999 120.356C49.4046 120.243 49.1208 120.261 48.8485 120.411C48.5819 120.563 48.3866 120.8 48.2625 121.124C48.1407 121.442 48.1282 121.747 48.225 122.038C48.3275 122.331 48.5265 122.534 48.8218 122.648C49.1057 122.756 49.3824 122.748 49.6516 122.624C49.9266 122.501 50.1326 122.261 50.2697 121.903C50.4112 121.534 50.4206 121.212 50.298 120.937C50.1832 120.658 49.9839 120.465 49.6999 120.356ZM52.9629 120.807L53.8177 121.069L52.0799 126.739L51.2251 126.477L52.9629 120.807ZM53.3427 119.693C53.2701 119.556 53.2579 119.409 53.306 119.252C53.3541 119.095 53.4466 118.98 53.5833 118.908C53.7201 118.835 53.867 118.823 54.024 118.871C54.181 118.919 54.2957 119.011 54.3683 119.148C54.4409 119.285 54.4531 119.432 54.405 119.589C54.3569 119.746 54.2645 119.861 54.1277 119.933C53.991 120.006 53.8441 120.018 53.6871 119.97C53.5301 119.922 53.4153 119.829 53.3427 119.693ZM55.0392 121.402L55.9086 121.611L55.3956 123.749C55.3204 124.062 55.3197 124.3 55.3936 124.461C55.4825 124.664 55.6512 124.795 55.8996 124.855C56.148 124.914 56.3578 124.874 56.529 124.734C56.6681 124.623 56.7753 124.411 56.8505 124.098L57.3634 121.96L58.2328 122.169L57.7135 124.333C57.5815 124.883 57.3505 125.259 57.0205 125.462C56.6392 125.695 56.1972 125.752 55.6945 125.631C55.2096 125.515 54.8532 125.267 54.6254 124.887C54.4231 124.557 54.3879 124.117 54.5199 123.567L55.0392 121.402ZM58.2371 127.302L59.526 125.163L60.2689 125.597L58.7921 127.641L58.2371 127.302ZM65.965 120.902L65.858 123.326L68.3164 121.005L69.5376 121.059L66.6729 123.691L69.2877 127.139L68.0482 127.084L65.9981 124.291L65.8078 124.465L65.6969 126.981L64.7672 126.94L65.0353 120.861L65.965 120.902ZM72.7849 123.555L72.761 123.108L73.6538 123.06L73.8589 126.896L72.9662 126.943L72.9447 126.543C72.6657 126.905 72.2923 127.098 71.8247 127.123C71.2599 127.153 70.7967 126.977 70.4352 126.595C70.0797 126.212 69.887 125.741 69.8571 125.182C69.8246 124.575 69.9778 124.079 70.3166 123.696C70.6612 123.306 71.0946 123.097 71.6169 123.069C72.0967 123.043 72.486 123.205 72.7849 123.555ZM71.7691 123.865C71.4533 123.882 71.2016 124.014 71.0138 124.261C70.8321 124.509 70.7506 124.805 70.7691 125.151C70.7873 125.492 70.8999 125.775 71.1069 126.001C71.32 126.227 71.5844 126.332 71.9002 126.315C72.2039 126.299 72.4533 126.179 72.6484 125.955C72.8496 125.731 72.9399 125.428 72.9195 125.046C72.8984 124.651 72.7758 124.353 72.5519 124.152C72.3337 123.944 72.0728 123.848 71.7691 123.865ZM76.6181 123.576L75.9387 123.657L76.2964 126.655L75.4087 126.761L75.051 123.763L74.6796 123.807L74.5823 122.992L74.9537 122.947L74.7873 121.552L75.675 121.446L75.8415 122.841L76.5209 122.76L76.6181 123.576ZM77.9756 126.402L76.7437 119.867L77.6223 119.701L78.2036 122.785C78.4256 122.452 78.7368 122.248 79.1372 122.173C79.6392 122.078 80.0419 122.179 80.3452 122.474C80.5505 122.677 80.6971 123.011 80.7849 123.478L81.2209 125.791L80.3423 125.956L79.9216 123.724C79.863 123.413 79.7651 123.206 79.6279 123.102C79.4836 122.993 79.3068 122.958 79.0976 122.997C78.8108 123.051 78.6153 123.197 78.5113 123.433C78.4244 123.629 78.4244 123.957 78.5111 124.417L78.8541 126.237L77.9756 126.402ZM82.9629 125.363L81.8454 121.688L82.7008 121.428L82.8043 121.769C82.9544 121.405 83.2127 121.168 83.5793 121.056C84.0041 120.927 84.376 121.011 84.6952 121.308C84.8357 120.871 85.1445 120.58 85.6217 120.435C86.0988 120.29 86.5063 120.376 86.8442 120.693C87.0395 120.875 87.1973 121.164 87.3176 121.559L88.0078 123.829L87.1524 124.089L86.5366 122.064C86.4393 121.744 86.3467 121.534 86.2589 121.433C86.112 121.243 85.9163 121.185 85.672 121.259C85.4625 121.323 85.3212 121.464 85.248 121.683C85.1852 121.874 85.2149 122.17 85.337 122.572L85.913 124.466L85.0577 124.726L84.4418 122.701C84.3445 122.381 84.252 122.171 84.1642 122.07C84.0173 121.88 83.8216 121.822 83.5772 121.896C83.3677 121.96 83.2264 122.101 83.1533 122.321C83.0905 122.511 83.1202 122.807 83.2423 123.209L83.8183 125.103L82.9629 125.363ZM90.9379 118.987L90.7617 118.576L91.5833 118.223L93.0971 121.753L92.2754 122.106L92.1172 121.737C91.98 122.173 91.6961 122.483 91.2657 122.668C90.7459 122.89 90.2504 122.885 89.7792 122.65C89.3135 122.413 88.9704 122.037 88.7499 121.523C88.5102 120.964 88.4833 120.446 88.6693 119.969C88.8584 119.485 89.1934 119.139 89.6741 118.933C90.1156 118.744 90.5369 118.761 90.9379 118.987ZM90.0911 119.628C89.8004 119.752 89.6096 119.963 89.5187 120.26C89.4333 120.555 89.4589 120.862 89.5955 121.18C89.7298 121.493 89.9331 121.72 90.2054 121.862C90.4834 122.001 90.7677 122.008 91.0583 121.883C91.3378 121.763 91.5306 121.565 91.6368 121.288C91.7485 121.008 91.7289 120.692 91.5778 120.34C91.422 119.977 91.2044 119.739 90.9248 119.627C90.6485 119.508 90.3706 119.508 90.0911 119.628ZM94.6059 121.023L92.7766 117.646L93.5627 117.22L93.7322 117.533C93.828 117.136 94.0604 116.837 94.4294 116.637C94.8732 116.396 95.2874 116.369 95.6717 116.555C95.9179 116.678 96.1569 116.953 96.3887 117.381L97.5097 119.45L96.7236 119.876L95.7068 117.999C95.5968 117.796 95.4909 117.639 95.3893 117.528C95.2877 117.417 95.1891 117.356 95.0935 117.346C94.995 117.33 94.9135 117.333 94.8489 117.354C94.7867 117.367 94.7075 117.399 94.6112 117.451C94.4989 117.512 94.4138 117.572 94.3559 117.631C94.3004 117.682 94.2514 117.764 94.2088 117.877C94.1687 117.982 94.1748 118.127 94.2272 118.313C94.2767 118.494 94.3724 118.715 94.5143 118.977L95.392 120.597L94.6059 121.023ZM99.411 114.198L97.6048 111.487L98.3487 110.992L102.037 116.526L101.293 117.021L101.071 116.687C101.015 117.141 100.792 117.498 100.402 117.758C99.9318 118.071 99.4434 118.156 98.9374 118.011C98.4364 117.862 98.0308 117.555 97.7205 117.089C97.3832 116.583 97.2626 116.079 97.3588 115.576C97.4567 115.065 97.7233 114.665 98.1585 114.375C98.5583 114.108 98.9758 114.049 99.411 114.198ZM98.6949 114.982C98.4317 115.157 98.2824 115.399 98.2469 115.708C98.2165 116.013 98.2975 116.31 98.4897 116.599C98.6786 116.882 98.9198 117.068 99.2133 117.158C99.5118 117.244 99.7927 117.199 100.056 117.024C100.309 116.855 100.462 116.625 100.516 116.333C100.576 116.038 100.499 115.731 100.286 115.412C100.067 115.083 99.8098 114.889 99.5147 114.83C99.2212 114.763 98.9479 114.813 98.6949 114.982ZM100.981 112.542L101.677 111.981L103.056 113.694C103.258 113.945 103.446 114.09 103.619 114.131C103.834 114.184 104.041 114.131 104.24 113.971C104.439 113.81 104.535 113.62 104.528 113.398C104.526 113.221 104.424 113.006 104.222 112.755L102.843 111.043L103.539 110.482L104.935 112.216C105.29 112.657 105.446 113.069 105.405 113.454C105.357 113.899 105.132 114.283 104.729 114.607C104.34 114.92 103.926 115.051 103.486 114.999C103.101 114.957 102.732 114.716 102.377 114.276L100.981 112.542Z" fill="#16509A"/>
<path d="M14.2666 96.2021L13.4214 94.1988L18.6962 88.904L18.6563 88.8878C18.2052 89.2266 17.6766 89.4992 17.1302 89.7297L12.3812 91.7333L11.5006 89.6459L22.0633 85.1896L22.8967 87.1648L17.6101 92.4317L17.6499 92.4479L18.6732 91.9006L19.1016 91.7034L23.9487 89.6584L24.8293 91.7458L14.2666 96.2021ZM9.96234 84.3814L9.41649 82.0575L19.9478 76.7569L20.5006 79.1104L18.7181 79.9664L19.2431 82.2015L21.2168 82.1596L21.7314 84.3502L9.96234 84.3814ZM17.048 80.7023L14.2049 81.9636L12.5766 82.6116L12.5836 82.6412L14.3266 82.4816L17.413 82.2565L17.048 80.7023ZM13.2749 72.6064L13.0451 68.9036L13.9405 68.8481C16.3686 68.6974 19.6377 69.0887 19.8288 72.1694C20.0199 75.25 16.7738 76.4568 14.2395 76.6141C11.5989 76.7779 8.22279 76.1342 8.02225 72.9018C7.91398 71.1567 8.93601 69.9507 10.5297 69.3644L11.516 71.5121C10.9459 71.6541 10.0619 71.8917 10.1155 72.7567C10.1196 74.2951 12.9516 74.2718 14.0291 74.2049C15.2128 74.1315 17.8334 73.8927 17.7299 72.2234C17.6583 71.0701 16.0991 70.984 15.31 71.033L15.3994 72.4746L13.2749 72.6064ZM8.27004 64.191L8.51121 61.816L20.1949 60.2363L19.9507 62.6415L17.9866 62.8699L17.7546 65.1541L19.6342 65.7576L19.4069 67.9964L8.27004 64.191ZM16.1678 63.0215L13.0689 63.2875L11.3183 63.3696L11.3153 63.3998L13.0151 63.817L16.0065 64.6098L16.1678 63.0215ZM21.0013 57.1693L20.414 59.3574L9.34162 56.3854L9.93285 54.1827C10.3073 52.7876 11.1242 50.3306 14.1493 51.1426C15.3681 51.4697 16.2807 52.2342 16.5911 53.4825L22.1444 52.9107L21.5256 55.2162L15.8989 55.7683L15.891 55.7977L21.0013 57.1693ZM11.7352 54.6822L14.6868 55.4745L14.804 55.0966C15.072 54.098 14.5029 53.5202 13.5925 53.2758C12.7995 53.063 12.0509 53.2714 11.814 54.3885L11.7352 54.6822ZM13.5186 43.6512L20.666 46.6588C21.5348 47.0244 24.2949 48.0704 23.1921 50.6911C22.9739 51.2096 22.6363 51.7769 22.2093 52.1251L20.1211 51.2464C20.5636 51.1357 20.9869 50.8354 21.1697 50.4009C21.5826 49.4199 20.488 49.0418 19.7873 48.7469L12.6399 45.7393L13.5186 43.6512ZM14.8959 40.928L16.055 38.9815L22.4302 42.7778C23.1748 43.2212 24.2439 43.9817 24.874 42.9235C25.4419 41.9699 24.7234 41.542 23.9996 41.0933L17.2064 37.0481L18.3655 35.1015L25.5506 39.3802C26.5957 40.0025 28.3024 41.1781 26.6298 43.9868C25.5485 45.8027 24.0537 46.3813 22.2117 45.2844L14.8959 40.928ZM20.3826 32.2929L21.7917 30.6371L28.8931 32.9668L28.8897 32.9239C28.3841 32.6734 27.903 32.3238 27.4514 31.9395L23.5259 28.5991L24.9942 26.8737L33.7251 34.3035L32.3357 35.9362L25.2539 33.5834L25.2574 33.6262L26.2064 34.2941L26.5752 34.588L30.5817 37.9974L29.1135 39.7227L20.3826 32.2929ZM33.8796 19.1305C35.5314 17.9639 38.1005 18.1226 40.5828 21.6374C43.065 25.1521 42.3554 27.6264 40.7036 28.793C39.0518 29.9596 36.4826 29.8009 34.0004 26.2861C31.5181 22.7713 32.2278 20.2971 33.8796 19.1305ZM35.9751 24.8915C36.5014 25.6367 38.2636 27.9474 39.4931 27.0791C40.7227 26.2107 39.1343 23.7772 38.6081 23.032C38.0204 22.1999 36.3195 19.9761 35.09 20.8444C33.8604 21.7128 35.3874 24.0594 35.9751 24.8915ZM39.7541 15.5019L43.8394 13.439L44.7989 15.3392L42.7359 16.3809L43.8392 18.5661L45.6987 17.6272L46.6581 19.5273L44.7987 20.4662L46.9438 24.7145L44.9215 25.7356L39.7541 15.5019ZM46.4291 12.34L50.7372 10.7953L51.4556 12.799L49.2801 13.5791L50.1064 15.8834L52.0672 15.1803L52.7856 17.184L50.8248 17.8871L52.4311 22.3669L50.2985 23.1316L46.4291 12.34ZM58.1474 9.36666L58.6265 11.5187C58.0954 11.2319 57.4736 11.0276 56.8651 11.1631C56.1824 11.3151 55.8445 11.8265 55.9965 12.5092C56.4061 14.3495 59.7983 13.7034 60.4723 16.731C60.915 18.7198 60.1059 20.4731 58.0281 20.9357C57.4048 21.0745 56.5901 21.0533 56.0029 20.7946L55.5337 18.6872C56.1325 18.9277 56.6899 19.0528 57.3429 18.9075C58.0553 18.7489 58.5136 18.1484 58.3484 17.4063C58.1567 16.5455 57.4014 16.371 56.6789 16.0645C55.2109 15.4879 54.2393 14.8319 53.8759 13.1993C53.4827 11.4332 54.1664 9.67655 56.0661 9.25365C56.7785 9.09506 57.4597 9.14593 58.1474 9.36666ZM61.4946 8.44059L66.0384 8.03954L66.2255 10.1599L63.9385 10.3618L64.1578 12.8457L66.1722 12.6679L66.3593 14.7883L64.3449 14.9661L64.5722 17.5409L66.8895 17.3364L67.0766 19.4568L62.5026 19.8605L61.4946 8.44059ZM68.1987 7.95587L74.0347 8.13088L73.9709 10.2586L72.1776 10.2048L71.8977 19.5363L69.6332 19.4684L69.9131 10.1369L68.1349 10.0836L68.1987 7.95587ZM80.5891 20.828L78.3902 20.2827L81.1495 9.15542L83.437 9.72265C83.9092 9.83975 87.2882 10.3643 86.3989 13.9505C85.8829 16.0313 84.2435 16.8937 82.207 16.3886L81.7273 16.2384L80.5891 20.828ZM82.8983 11.5159L82.1701 14.4527C83.2216 14.7604 83.9255 14.512 84.2073 13.3757C84.4049 12.5788 84.256 11.8526 83.3115 11.6184L82.8983 11.5159ZM87.6212 23.0647L85.534 22.1835L89.9929 11.6219L92.0941 12.5089C93.4248 13.0707 95.7469 14.2161 94.5287 17.1017C94.0379 18.2643 93.1558 19.0637 91.8767 19.2004L91.6833 24.7796L89.4842 23.8512L89.7071 18.2019L89.6791 18.1901L87.6212 23.0647ZM91.3527 14.2259L90.164 17.0414L90.5223 17.2092C91.4748 17.6113 92.1251 17.1266 92.4917 16.2582C92.811 15.5018 92.707 14.7317 91.6328 14.3442L91.3527 14.2259ZM98.5986 15.4486L100.566 16.5728L94.8767 26.5261L92.9098 25.4019L98.5986 15.4486ZM103.111 18.2492L104.849 19.5567L102.948 26.7848L102.99 26.7788C103.21 26.2592 103.53 25.7579 103.887 25.2842L106.987 21.166L108.797 22.5283L101.902 31.688L100.19 30.3988L102.115 23.189L102.072 23.195L101.462 24.1823L101.191 24.568L98.0272 28.7712L96.2171 27.4089L103.111 18.2492ZM110.889 24.3117L114.968 28.4887L113.446 29.976L112.192 28.6925L105.513 35.2154L103.93 33.5947L110.609 27.0717L109.366 25.7991L110.889 24.3117ZM116.375 30.1215L117.792 31.8898L108.843 39.0566L107.427 37.2883L116.375 30.1215ZM119.555 34.4067L120.686 36.2635L116.249 42.278L116.291 42.2881C116.687 41.8865 117.17 41.539 117.677 41.2305L122.078 38.5489L123.257 40.4836L113.466 46.4481L112.351 44.6172L116.804 38.6288L116.762 38.6186L115.83 39.3107L115.436 39.5689L110.943 42.3059L109.764 40.3712L119.555 34.4067ZM121.444 48.9371L122.797 52.3918L121.961 52.7188C119.696 53.6056 116.464 54.2339 115.339 51.3598C114.214 48.4856 116.934 46.3429 119.299 45.4173C121.762 44.4529 125.174 44.032 126.354 47.0477C126.992 48.676 126.388 50.1369 125.05 51.183L123.454 49.4404C123.953 49.1307 124.722 48.6338 124.406 47.8268C123.931 46.3635 121.242 47.2528 120.237 47.6463C119.132 48.0786 116.711 49.1083 117.32 50.6657C117.742 51.7417 119.252 51.3463 119.989 51.0581L119.462 49.7131L121.444 48.9371ZM118.333 61.736L118.024 59.4916L129.381 57.9296L129.702 60.2643C129.769 60.7463 130.534 64.079 126.874 64.5824C124.75 64.8745 123.341 63.6716 123.055 61.5929L123.017 61.0917L118.333 61.736ZM127.837 60.4288L124.84 60.841C124.944 61.9318 125.435 62.4934 126.595 62.3339C127.409 62.222 128.028 61.8146 127.895 60.8505L127.837 60.4288ZM118.873 69.0969L118.91 66.8317L130.372 67.0158L130.336 69.2963C130.313 70.7405 130.119 73.3225 126.987 73.2722C125.725 73.252 124.654 72.7329 124.049 71.5979L118.802 73.5057L118.841 71.1189L124.163 69.2123L124.164 69.1819L118.873 69.0969ZM128.466 69.251L125.41 69.2019L125.389 69.597C125.372 70.6307 126.065 71.0525 127.008 71.0676C127.828 71.0808 128.504 70.6963 128.461 69.5551L128.466 69.251ZM129.988 76.6769L129.271 81.1816L127.169 80.8469L127.53 78.5795L125.067 78.1874L124.749 80.1845L122.647 79.8498L122.965 77.8528L120.412 77.4463L120.047 79.7437L117.944 79.409L118.666 74.8743L129.988 76.6769ZM126.964 88.3448L124.847 87.7302C125.354 87.4024 125.832 86.9553 126.005 86.3567C126.2 85.685 125.914 85.1428 125.243 84.9479C123.432 84.4223 122.368 87.7073 119.389 86.8427C117.432 86.2748 116.284 84.7223 116.877 82.6781C117.055 82.0648 117.465 81.3606 117.975 80.9701L120.048 81.5719C119.549 81.9812 119.171 82.4099 118.985 83.0524C118.782 83.7533 119.088 84.4438 119.818 84.6557C120.665 84.9015 121.181 84.3231 121.797 83.8369C123.008 82.827 124.051 82.2904 125.657 82.7566C127.395 83.261 128.606 84.7051 128.064 86.5741C127.86 87.275 127.488 87.8478 126.964 88.3448ZM123.854 95.9469L121.842 95.0461C122.389 94.7913 122.924 94.4145 123.179 93.8455C123.465 93.2071 123.256 92.6308 122.618 92.345C120.897 91.5747 119.39 94.6814 116.559 93.4142C114.699 92.5817 113.776 90.8857 114.646 88.9428C114.907 88.36 115.41 87.7191 115.968 87.4025L117.939 88.2847C117.388 88.6213 116.955 88.9938 116.682 89.6044C116.383 90.2705 116.592 90.9966 117.285 91.3073C118.09 91.6676 118.681 91.1659 119.359 90.7694C120.698 89.9362 121.804 89.5485 123.331 90.2319C124.982 90.9711 125.983 92.5685 125.188 94.3449C124.89 95.011 124.442 95.527 123.854 95.9469Z" fill="#16509A"/>
<path opacity="0.5" d="M26.9669 105.118L26.9599 105.256L29.1493 106.076L27.0295 106.663L26.8968 106.7L26.8899 106.838L26.7918 109.035L25.58 107.201L25.5032 107.085L25.3706 107.122L23.2486 107.709L24.6201 105.988L24.7066 105.88L24.6307 105.765L23.418 103.93L25.6064 104.749L25.6929 104.641L27.0635 102.92L26.9669 105.118Z" fill="#16509A" stroke="#16509A" stroke-width="0.380117"/>
<path opacity="0.5" d="M112.967 104.118L112.96 104.256L115.149 105.076L113.03 105.663L112.897 105.7L112.89 105.838L112.792 108.035L111.58 106.201L111.503 106.085L111.371 106.122L109.249 106.709L110.62 104.988L110.707 104.88L110.631 104.765L109.418 102.93L111.606 103.749L111.693 103.641L113.063 101.92L112.967 104.118Z" fill="#16509A" stroke="#16509A" stroke-width="0.380117"/>
</svg>
